<svg version="1.1" xmlns="http://www.w3.org/2000/svg" viewBox="-21332.35283203125 -1075.2 26663.31754805938 2409.216027832031"><desc>Created with Snap</desc><defs></defs><g><rect x="-21332.35283203125" y="-1075.2" width="26663.31754805938" height="2409.216027832031" fill="#004e89" style=""></rect><g transform="matrix(31.3253,0,0,31.3253,1891.2,-1436.8586)"><path d="M99.316,65.122c-5.84,0-9.57-9.863-13.516-20.308c-4.36-11.533-8.867-23.462-17.007-23.462  c-7.603,0-12.075,12.93-16.812,26.616c-0.301,0.869-0.601,1.733-0.903,2.603c-4.609,5.63-9.624,10.967-17.859,10.967  c-8.853,0-12.993-7.07-16.997-13.906c-2.988-5.112-8.598-13.55-15.537-13.55C0.305,34.082,0,34.443,0,34.883  s0.305,0.791,0.686,0.791c7.207,0,10.811,9.775,14.626,20.122c4.138,11.235,8.423,22.852,17.908,22.852  c9.434,0,14.707-14.707,19.737-29.229c4.563-5.649,8.894-10.957,15.837-10.957c7.515,0,11.88,7.319,16.099,14.395  c3.086,5.171,8.857,13.857,14.424,13.857c0.376,0,0.684-0.356,0.684-0.796S99.692,65.122,99.316,65.122z M84.863,47.197  c0.298,0.713,0.591,1.421,0.889,2.124c-0.093-0.2-0.186-0.396-0.278-0.596c-4.316-9.351-8.784-19.019-16.68-19.019  c-5.396,0-9.224,4.956-12.739,11.431c3.584-8.179,7.393-14.614,12.739-14.614C76.27,26.523,80.64,37.036,84.863,47.197z   M16.25,53.403c-0.271-0.669-0.542-1.328-0.811-1.987c0.066,0.146,0.132,0.293,0.198,0.435c4.102,9.067,8.342,18.442,17.583,18.442  c6.453,0,10.957-5.161,14.797-11.807c-3.87,8.345-8.352,14.99-14.797,14.99C24.404,73.477,20.256,63.271,16.25,53.403z   M14.758,48.228c0.295,0.576,0.591,1.152,0.886,1.738c4.104,8.037,8.347,16.348,17.576,16.348c6.721,0,11.331-4.502,15.281-10.156  c-3.975,7.344-8.56,13.34-15.281,13.34c-8.826,0-12.971-9.155-16.975-18.013C15.747,50.386,15.254,49.297,14.758,48.228z   M68.794,30.508c7.485,0,11.851,9.453,16.079,18.594c0.513,1.113,1.021,2.217,1.533,3.301c-0.313-0.596-0.625-1.201-0.938-1.802  c-4.321-8.315-8.789-16.914-16.675-16.914c-5.654,0-9.585,4.385-13.257,9.956C59.268,36.377,63.184,30.508,68.794,30.508z   M68.794,22.944c5.718,0,9.614,7.124,13.057,15.562c-3.374-7.095-7.305-12.773-13.057-12.773c-4.185,0-7.422,3.555-10.308,8.765  C61.431,27.729,64.658,22.944,68.794,22.944z M33.22,62.334c6.99,0,11.697-3.672,15.759-8.169  c-4.082,6.182-8.757,11.353-15.759,11.353c-8.838,0-12.981-8.115-16.985-15.957c-0.74-1.455-1.487-2.915-2.268-4.326  c0.569,0.928,1.128,1.88,1.692,2.842C19.763,55.088,24.006,62.334,33.22,62.334z M33.22,77.061c-6.79,0-10.774-6.973-14.106-15.21  c3.301,6.895,7.375,12.422,14.106,12.422c5.142,0,9.043-3.921,12.356-9.531C42.236,71.904,38.35,77.061,33.22,77.061z   M68.794,37.666c-5.884,0-9.917,3.594-13.726,8.042c3.862-6.138,7.861-11.226,13.726-11.226c7.5,0,11.86,8.403,16.084,16.528  c0.63,1.206,1.255,2.407,1.885,3.569c-0.435-0.718-0.874-1.445-1.309-2.178C81.133,45.156,76.665,37.666,68.794,37.666z" fill="#ffffff" style=""></path><desc>Created with Snap</desc><defs></defs></g><g><g transform="matrix(0.5,0,0,-0.5,0,0)"><path d="M320 846L320 1536L448 1536L448 0L320 0L320 746L192 746L192 0L64 0L64 1536L192 1536L192 846L320 846ZM736 736L768 1152L800 1536L928 1536L800 512L800 0L672 0L672 512L544 1536L672 1536L704 1152L736 736ZM1408 1376L1408 864Q1408 804 1386 771Q1364 739 1328 724Q1292 709 1246 706Q1200 704 1152 704L1152 0L1024 0L1024 1536L1184 1536Q1269 1536 1314 1520Q1360 1504 1381 1480Q1402 1456 1405 1428Q1408 1400 1408 1376ZM1280 896L1280 1376Q1280 1400 1273 1413Q1267 1426 1252 1432Q1237 1438 1212 1439Q1188 1440 1152 1440L1152 800Q1176 800 1199 801Q1222 803 1240 812Q1258 821 1269 840Q1280 860 1280 896ZM1760 1536L1760 1440L1632 1440L1632 864L1760 864L1760 768L1632 768L1632 96L1760 96L1760 0L1504 0L1504 1536L1760 1536ZM2208 1408L2208 896Q2208 848 2184 822Q2160 796 2112 785Q2160 772 2184 746Q2208 720 2208 672L2208 0L2080 0L2080 672Q2080 696 2074 709Q2068 722 2056 728Q2044 734 2026 735Q2008 736 1984 736L1984 0L1856 0L1856 1536L2000 1536Q2065 1536 2111 1525Q2158 1515 2183 1488Q2208 1462 2208 1408ZM2080 896L2080 1376Q2080 1400 2074 1413Q2068 1426 2056 1432Q2044 1438 2026 1439Q2008 1440 1984 1440L1984 832Q2008 832 2026 833Q2044 834 2056 840Q2068 846 2074 859Q2080 872 2080 896ZM2720 1376L2720 864Q2720 804 2698 771Q2676 739 2640 724Q2604 709 2558 706Q2512 704 2464 704L2464 0L2336 0L2336 1536L2496 1536Q2581 1536 2626 1520Q2672 1504 2693 1480Q2714 1456 2717 1428Q2720 1400 2720 1376ZM2592 896L2592 1376Q2592 1400 2585 1413Q2579 1426 2564 1432Q2549 1438 2524 1439Q2500 1440 2464 1440L2464 800Q2488 800 2511 801Q2534 803 2552 812Q2570 821 2581 840Q2592 860 2592 896ZM2976 736L3008 1152L3040 1536L3168 1536L3040 512L3040 0L2912 0L2912 512L2784 1536L2912 1536L2944 1152L2976 736Z" fill="#ffffff" style=""></path></g></g><g transform="matrix(0.75,0,0,0.75,-21049.7288,862.464)"><g transform="matrix(1.024,0,0,-1.024,0,0)"><path d="M499 117L499 290L216 290L216 88L274 85L274 0L32 0L32 81L65 84Q94 87 94 112L94 577L37 580L37 665L279 665L279 584L246 581Q230 579 223 572Q216 566 216 548L216 393L499 393L499 577L442 580L442 665L684 665L684 584L651 581Q622 578 622 549L622 88L679 85L679 0L437 0L437 81L470 84Q485 86 492 92Q499 99 499 117ZM1113 19L1113 95Q1058 17 951 17Q796 17 796 190L796 391Q796 418 771 419L739 421L739 503L915 503L915 216Q915 163 930 136Q945 109 992 109Q1039 109 1067 138Q1096 167 1096 208L1096 389Q1096 406 1090 412Q1085 419 1071 419L1039 421L1039 503L1215 503L1215 19Q1215 -102 1156 -158Q1098 -214 979 -214Q861 -214 795 -181L795 -42L890 -34L890 -82Q890 -109 915 -119Q940 -128 984 -128Q1113 -128 1113 19ZM1374 -95L1374 389Q1374 406 1368 412Q1363 419 1349 419L1307 422L1307 503L1476 503L1476 438Q1492 468 1534 493Q1576 518 1634 518Q1815 518 1815 264Q1815 129 1756 57Q1697 -15 1596 -15Q1536 -15 1489 14L1489 -124L1570 -128L1570 -207L1312 -207L1312 -131L1345 -128Q1360 -126 1367 -120Q1374 -113 1374 -95ZM1691 254Q1691 421 1590 421Q1548 421 1518 395Q1489 370 1489 335L1489 105Q1527 80 1581 80Q1636 80 1663 130Q1691 180 1691 254ZM2137 518Q2212 518 2256 481Q2300 445 2300 379Q2300 335 2281 301Q2262 268 2234 249Q2206 230 2166 218Q2099 198 2015 198Q2018 145 2048 112Q2078 80 2140 80Q2202 80 2264 124L2302 43Q2282 25 2234 6Q2187 -13 2126 -13Q2004 -13 1947 54Q1890 122 1890 240Q1890 358 1955 438Q2020 518 2137 518ZM2091 289Q2128 296 2159 318Q2190 341 2190 372Q2190 433 2130 433Q2074 433 2044 388Q2014 344 2011 282Q2055 283 2091 289ZM2432 112L2432 389Q2432 405 2426 411Q2421 418 2407 419L2365 422L2365 503L2534 503L2534 428Q2552 467 2590 492Q2628 518 2677 518Q2727 518 2772 496L2772 347L2679 340L2679 386Q2679 406 2669 411Q2658 416 2642 416Q2602 416 2576 387Q2551 359 2551 315L2551 83L2638 79L2638 0L2370 0L2370 76L2403 79Q2418 81 2425 87Q2432 94 2432 112ZM3111 0L2831 0L2831 81L2864 84Q2893 87 2893 112L2893 577L2836 580L2836 665L3122 665Q3234 665 3296 612Q3359 560 3359 455Q3359 350 3288 291Q3217 233 3100 233L3015 233L3015 88L3111 85L3111 0ZM3015 568L3015 330L3087 330Q3233 330 3233 449Q3233 521 3195 544Q3158 568 3076 568L3015 568ZM3790 19L3790 95Q3735 17 3628 17Q3473 17 3473 190L3473 391Q3473 418 3448 419L3416 421L3416 503L3592 503L3592 216Q3592 163 3607 136Q3622 109 3669 109Q3716 109 3744 138Q3773 167 3773 208L3773 389Q3773 406 3767 412Q3762 419 3748 419L3716 421L3716 503L3892 503L3892 19Q3892 -102 3833 -158Q3775 -214 3656 -214Q3538 -214 3472 -181L3472 -42L3567 -34L3567 -82Q3567 -109 3592 -119Q3617 -128 3661 -128Q3790 -128 3790 19ZM4075 -15Q4040 -15 4021 4Q4002 24 4002 55Q4002 87 4021 107Q4041 128 4074 128Q4108 128 4128 108Q4148 89 4148 57Q4148 26 4129 5Q4110 -15 4075 -15ZM4075 353Q4040 353 4021 372Q4002 392 4002 423Q4002 455 4021 475Q4041 496 4074 496Q4108 496 4128 476Q4148 457 4148 425Q4148 394 4129 373Q4110 353 4075 353ZM4456 112L4617 578L4554 584L4554 665L4783 665L4987 88L4988 88L5045 85L5045 0L4787 0L4787 81L4825 84Q4842 86 4848 92Q4854 98 4849 114L4828 176L4594 176L4564 88L4624 85L4624 0L4393 0L4393 81L4426 84Q4447 86 4456 112ZM4714 553L4711 553L4618 268L4804 268L4714 553ZM5119 420L5077 423L5077 503L5246 503L5246 438Q5272 475 5315 496Q5358 518 5408 518Q5484 518 5525 474Q5567 431 5567 344L5567 83L5624 80L5624 0L5386 0L5386 76L5419 79Q5434 81 5441 87Q5448 94 5448 112L5448 318Q5448 373 5431 399Q5414 426 5366 426Q5319 426 5291 396Q5263 366 5263 325L5263 83L5320 80L5320 0L5082 0L5082 76L5115 79Q5130 81 5137 87Q5144 94 5144 112L5144 389Q5144 419 5119 420ZM6332 483L6332 111Q6332 95 6337 89Q6343 83 6357 82L6389 80L6389 0L6230 0L6230 58L6227 59Q6177 -13 6090 -13Q5988 -13 5939 52Q5890 117 5890 230Q5890 366 5956 442Q6022 518 6154 518Q6239 518 6332 483ZM6216 159L6216 418Q6188 431 6139 431Q6072 431 6042 377Q6012 323 6012 234Q6012 72 6116 72Q6160 72 6188 98Q6216 125 6216 159ZM6945 82L6980 79L6980 0L6818 0L6818 65Q6763 -13 6656 -13Q6501 -13 6501 160L6501 391Q6501 418 6476 419L6444 421L6444 503L6620 503L6620 186Q6620 133 6635 106Q6650 79 6697 79Q6744 79 6772 108Q6801 137 6801 178L6801 389Q6801 405 6795 411Q6790 418 6776 419L6744 421L6744 503L6920 503L6920 111Q6920 95 6925 89Q6930 84 6945 82ZM7152 609L7217 609L7217 503L7350 503L7340 419L7217 419L7217 156Q7217 112 7233 94Q7249 77 7282 77Q7316 77 7350 98L7380 21Q7330 -14 7253 -14Q7208 -14 7177 -3Q7146 9 7131 23Q7116 37 7108 64Q7100 91 7099 106Q7098 122 7098 152L7098 419L7027 419L7037 492Q7084 496 7108 525Q7132 555 7152 609ZM7648 73Q7757 73 7757 249Q7757 338 7732 384Q7708 430 7650 430Q7593 430 7566 386Q7539 342 7539 266Q7539 125 7591 89Q7614 73 7648 73ZM7418 252Q7418 326 7440 380Q7462 435 7499 464Q7570 518 7656 518Q7716 518 7757 498Q7799 479 7822 453Q7846 428 7862 379Q7879 331 7879 265Q7879 127 7812 56Q7745 -15 7640 -15Q7536 -15 7477 52Q7418 120 7418 252ZM7982 419L7940 422L7940 503L8109 503L8109 438Q8165 518 8262 518Q8360 518 8394 438Q8450 518 8546 518Q8618 518 8657 474Q8696 431 8696 344L8696 83L8753 80L8753 0L8515 0L8515 76L8548 79Q8563 81 8569 87Q8576 94 8577 111L8577 318Q8577 373 8564 399Q8552 426 8506 426Q8460 426 8435 398Q8411 370 8411 323L8411 83L8466 80L8466 0L8230 0L8230 76L8263 79Q8278 81 8285 87Q8292 94 8292 112L8292 318Q8292 373 8279 399Q8267 426 8220 426Q8174 426 8150 397Q8126 368 8126 325L8126 83L8180 80L8180 0L7944 0L7944 76L7977 79Q7992 81 7999 87Q8006 94 8006 112L8007 112L8007 388Q8007 405 8001 411Q7996 418 7982 419ZM9261 483L9261 111Q9261 95 9266 89Q9272 83 9286 82L9318 80L9318 0L9159 0L9159 58L9156 59Q9106 -13 9019 -13Q8917 -13 8868 52Q8819 117 8819 230Q8819 366 8885 442Q8951 518 9083 518Q9168 518 9261 483ZM9145 159L9145 418Q9117 431 9068 431Q9001 431 8971 377Q8941 323 8941 234Q8941 72 9045 72Q9089 72 9117 98Q9145 125 9145 159ZM9490 609L9555 609L9555 503L9688 503L9678 419L9555 419L9555 156Q9555 112 9571 94Q9587 77 9620 77Q9654 77 9688 98L9718 21Q9668 -14 9591 -14Q9546 -14 9515 -3Q9484 9 9469 23Q9454 37 9446 64Q9438 91 9437 106Q9436 122 9436 152L9436 419L9365 419L9375 492Q9422 496 9446 525Q9470 555 9490 609ZM9758 503L9937 503L9937 83L9994 80L9994 0L9756 0L9756 76L9789 79Q9818 82 9818 111L9818 389Q9818 406 9812 412Q9807 418 9793 418L9758 420L9758 503ZM9811 589Q9790 610 9790 642Q9790 674 9811 695Q9832 717 9866 717Q9900 717 9921 695Q9943 674 9943 642Q9943 610 9921 589Q9900 569 9866 569Q9832 569 9811 589ZM10173 257Q10173 172 10205 125Q10237 78 10297 78Q10358 78 10417 121L10460 44Q10389 -14 10282 -14Q10175 -14 10113 53Q10052 121 10052 253Q10052 385 10122 451Q10193 518 10281 518Q10370 518 10446 477L10446 347L10354 340L10354 388Q10354 415 10334 421Q10315 428 10294 428Q10173 428 10173 257ZM10784 112L10784 599Q10784 615 10778 621Q10773 627 10759 628L10724 630L10724 713L10902 713L10902 444Q10954 518 11048 518Q11124 518 11165 474Q11207 431 11207 344L11207 83L11264 80L11264 0L11026 0L11026 76L11059 79Q11074 81 11081 87Q11088 94 11088 112L11088 318Q11088 370 11071 398Q11055 426 11007 426Q10960 426 10931 396Q10903 367 10903 325L10903 83L10960 80L10960 0L10722 0L10722 76L10755 79Q10770 81 10777 87Q10784 94 10784 112ZM11691 19L11691 95Q11636 17 11529 17Q11374 17 11374 190L11374 391Q11374 418 11349 419L11317 421L11317 503L11493 503L11493 216Q11493 163 11508 136Q11523 109 11570 109Q11617 109 11645 138Q11674 167 11674 208L11674 389Q11674 406 11668 412Q11663 419 11649 419L11617 421L11617 503L11793 503L11793 19Q11793 -102 11734 -158Q11676 -214 11557 -214Q11439 -214 11373 -181L11373 -42L11468 -34L11468 -82Q11468 -109 11493 -119Q11518 -128 11562 -128Q11691 -128 11691 19ZM11952 -95L11952 389Q11952 406 11946 412Q11941 419 11927 419L11885 422L11885 503L12054 503L12054 438Q12070 468 12112 493Q12154 518 12212 518Q12393 518 12393 264Q12393 129 12334 57Q12275 -15 12174 -15Q12114 -15 12067 14L12067 -124L12148 -128L12148 -207L11890 -207L11890 -131L11923 -128Q11938 -126 11945 -120Q11952 -113 11952 -95ZM12269 254Q12269 421 12168 421Q12126 421 12096 395Q12067 370 12067 335L12067 105Q12105 80 12159 80Q12214 80 12241 130Q12269 180 12269 254ZM12715 518Q12790 518 12834 481Q12878 445 12878 379Q12878 335 12859 301Q12840 268 12812 249Q12784 230 12744 218Q12677 198 12593 198Q12596 145 12626 112Q12656 80 12718 80Q12780 80 12842 124L12880 43Q12860 25 12812 6Q12765 -13 12704 -13Q12582 -13 12525 54Q12468 122 12468 240Q12468 358 12533 438Q12598 518 12715 518ZM12669 289Q12706 296 12737 318Q12768 341 12768 372Q12768 433 12708 433Q12652 433 12622 388Q12592 344 12589 282Q12633 283 12669 289ZM13010 112L13010 389Q13010 405 13004 411Q12999 418 12985 419L12943 422L12943 503L13112 503L13112 428Q13130 467 13168 492Q13206 518 13255 518Q13305 518 13350 496L13350 347L13257 340L13257 386Q13257 406 13247 411Q13236 416 13220 416Q13180 416 13154 387Q13129 359 13129 315L13129 83L13216 79L13216 0L12948 0L12948 76L12981 79Q12996 81 13003 87Q13010 94 13010 112ZM13466 -95L13466 389Q13466 406 13460 412Q13455 419 13441 419L13399 422L13399 503L13568 503L13568 438Q13584 468 13626 493Q13668 518 13726 518Q13907 518 13907 264Q13907 129 13848 57Q13789 -15 13688 -15Q13628 -15 13581 14L13581 -124L13662 -128L13662 -207L13404 -207L13404 -131L13437 -128Q13452 -126 13459 -120Q13466 -113 13466 -95ZM13783 254Q13783 421 13682 421Q13640 421 13610 395Q13581 370 13581 335L13581 105Q13619 80 13673 80Q13728 80 13755 130Q13783 180 13783 254ZM14427 483L14427 111Q14427 95 14432 89Q14438 83 14452 82L14484 80L14484 0L14325 0L14325 58L14322 59Q14272 -13 14185 -13Q14083 -13 14034 52Q13985 117 13985 230Q13985 366 14051 442Q14117 518 14249 518Q14334 518 14427 483ZM14311 159L14311 418Q14283 431 14234 431Q14167 431 14137 377Q14107 323 14107 234Q14107 72 14211 72Q14255 72 14283 98Q14311 125 14311 159ZM14607 112L14607 389Q14607 405 14601 411Q14596 418 14582 419L14540 422L14540 503L14709 503L14709 428Q14727 467 14765 492Q14803 518 14852 518Q14902 518 14947 496L14947 347L14854 340L14854 386Q14854 406 14844 411Q14833 416 14817 416Q14777 416 14751 387Q14726 359 14726 315L14726 83L14813 79L14813 0L14545 0L14545 76L14578 79Q14593 81 14600 87Q14607 94 14607 112ZM15456 483L15456 111Q15456 95 15461 89Q15467 83 15481 82L15513 80L15513 0L15354 0L15354 58L15351 59Q15301 -13 15214 -13Q15112 -13 15063 52Q15014 117 15014 230Q15014 366 15080 442Q15146 518 15278 518Q15363 518 15456 483ZM15340 159L15340 418Q15312 431 15263 431Q15196 431 15166 377Q15136 323 15136 234Q15136 72 15240 72Q15284 72 15312 98Q15340 125 15340 159ZM15610 419L15568 422L15568 503L15737 503L15737 438Q15793 518 15890 518Q15988 518 16022 438Q16078 518 16174 518Q16246 518 16285 474Q16324 431 16324 344L16324 83L16381 80L16381 0L16143 0L16143 76L16176 79Q16191 81 16197 87Q16204 94 16205 111L16205 318Q16205 373 16192 399Q16180 426 16134 426Q16088 426 16063 398Q16039 370 16039 323L16039 83L16094 80L16094 0L15858 0L15858 76L15891 79Q15906 81 15913 87Q15920 94 15920 112L15920 318Q15920 373 15907 399Q15895 426 15848 426Q15802 426 15778 397Q15754 368 15754 325L15754 83L15808 80L15808 0L15572 0L15572 76L15605 79Q15620 81 15627 87Q15634 94 15634 112L15635 112L15635 388Q15635 405 15629 411Q15624 418 15610 419ZM16691 518Q16766 518 16810 481Q16854 445 16854 379Q16854 335 16835 301Q16816 268 16788 249Q16760 230 16720 218Q16653 198 16569 198Q16572 145 16602 112Q16632 80 16694 80Q16756 80 16818 124L16856 43Q16836 25 16788 6Q16741 -13 16680 -13Q16558 -13 16501 54Q16444 122 16444 240Q16444 358 16509 438Q16574 518 16691 518ZM16645 289Q16682 296 16713 318Q16744 341 16744 372Q16744 433 16684 433Q16628 433 16598 388Q16568 344 16565 282Q16609 283 16645 289ZM17035 609L17100 609L17100 503L17233 503L17223 419L17100 419L17100 156Q17100 112 17116 94Q17132 77 17165 77Q17199 77 17233 98L17263 21Q17213 -14 17136 -14Q17091 -14 17060 -3Q17029 9 17014 23Q16999 37 16991 64Q16983 91 16982 106Q16981 122 16981 152L16981 419L16910 419L16920 492Q16967 496 16991 525Q17015 555 17035 609ZM17552 518Q17627 518 17671 481Q17715 445 17715 379Q17715 335 17696 301Q17677 268 17649 249Q17621 230 17581 218Q17514 198 17430 198Q17433 145 17463 112Q17493 80 17555 80Q17617 80 17679 124L17717 43Q17697 25 17649 6Q17602 -13 17541 -13Q17419 -13 17362 54Q17305 122 17305 240Q17305 358 17370 438Q17435 518 17552 518ZM17506 289Q17543 296 17574 318Q17605 341 17605 372Q17605 433 17545 433Q17489 433 17459 388Q17429 344 17426 282Q17470 283 17506 289ZM17847 112L17847 389Q17847 405 17841 411Q17836 418 17822 419L17780 422L17780 503L17949 503L17949 428Q17967 467 18005 492Q18043 518 18092 518Q18142 518 18187 496L18187 347L18094 340L18094 386Q18094 406 18084 411Q18073 416 18057 416Q18017 416 17991 387Q17966 359 17966 315L17966 83L18053 79L18053 0L17785 0L17785 76L17818 79Q17833 81 17840 87Q17847 94 17847 112ZM18677 73Q18786 73 18786 249Q18786 338 18761 384Q18737 430 18679 430Q18622 430 18595 386Q18568 342 18568 266Q18568 125 18620 89Q18643 73 18677 73ZM18447 252Q18447 326 18469 380Q18491 435 18528 464Q18599 518 18685 518Q18745 518 18786 498Q18828 479 18851 453Q18875 428 18891 379Q18908 331 18908 265Q18908 127 18841 56Q18774 -15 18669 -15Q18565 -15 18506 52Q18447 120 18447 252ZM19031 -95L19031 389Q19031 406 19025 412Q19020 419 19006 419L18964 422L18964 503L19133 503L19133 438Q19149 468 19191 493Q19233 518 19291 518Q19472 518 19472 264Q19472 129 19413 57Q19354 -15 19253 -15Q19193 -15 19146 14L19146 -124L19227 -128L19227 -207L18969 -207L18969 -131L19002 -128Q19017 -126 19024 -120Q19031 -113 19031 -95ZM19348 254Q19348 421 19247 421Q19205 421 19175 395Q19146 370 19146 335L19146 105Q19184 80 19238 80Q19293 80 19320 130Q19348 180 19348 254ZM19654 609L19719 609L19719 503L19852 503L19842 419L19719 419L19719 156Q19719 112 19735 94Q19751 77 19784 77Q19818 77 19852 98L19882 21Q19832 -14 19755 -14Q19710 -14 19679 -3Q19648 9 19633 23Q19618 37 19610 64Q19602 91 19601 106Q19600 122 19600 152L19600 419L19529 419L19539 492Q19586 496 19610 525Q19634 555 19654 609ZM19922 503L20101 503L20101 83L20158 80L20158 0L19920 0L19920 76L19953 79Q19982 82 19982 111L19982 389Q19982 406 19976 412Q19971 418 19957 418L19922 420L19922 503ZM19975 589Q19954 610 19954 642Q19954 674 19975 695Q19996 717 20030 717Q20064 717 20085 695Q20107 674 20107 642Q20107 610 20085 589Q20064 569 20030 569Q19996 569 19975 589ZM20252 419L20210 422L20210 503L20379 503L20379 438Q20435 518 20532 518Q20630 518 20664 438Q20720 518 20816 518Q20888 518 20927 474Q20966 431 20966 344L20966 83L21023 80L21023 0L20785 0L20785 76L20818 79Q20833 81 20839 87Q20846 94 20847 111L20847 318Q20847 373 20834 399Q20822 426 20776 426Q20730 426 20705 398Q20681 370 20681 323L20681 83L20736 80L20736 0L20500 0L20500 76L20533 79Q20548 81 20555 87Q20562 94 20562 112L20562 318Q20562 373 20549 399Q20537 426 20490 426Q20444 426 20420 397Q20396 368 20396 325L20396 83L20450 80L20450 0L20214 0L20214 76L20247 79Q20262 81 20269 87Q20276 94 20276 112L20277 112L20277 388Q20277 405 20271 411Q20266 418 20252 419ZM21084 503L21263 503L21263 83L21320 80L21320 0L21082 0L21082 76L21115 79Q21144 82 21144 111L21144 389Q21144 406 21138 412Q21133 418 21119 418L21084 420L21084 503ZM21137 589Q21116 610 21116 642Q21116 674 21137 695Q21158 717 21192 717Q21226 717 21247 695Q21269 674 21269 642Q21269 610 21247 589Q21226 569 21192 569Q21158 569 21137 589ZM21793 159L21793 0L21385 0L21385 76L21642 414L21516 414Q21495 414 21489 406Q21484 398 21484 380L21484 345L21390 352L21390 503L21788 503L21788 435L21528 90L21670 90Q21699 90 21699 124L21699 166L21793 159ZM22310 483L22310 111Q22310 95 22315 89Q22321 83 22335 82L22367 80L22367 0L22208 0L22208 58L22205 59Q22155 -13 22068 -13Q21966 -13 21917 52Q21868 117 21868 230Q21868 366 21934 442Q22000 518 22132 518Q22217 518 22310 483ZM22194 159L22194 418Q22166 431 22117 431Q22050 431 22020 377Q21990 323 21990 234Q21990 72 22094 72Q22138 72 22166 98Q22194 125 22194 159ZM22539 609L22604 609L22604 503L22737 503L22727 419L22604 419L22604 156Q22604 112 22620 94Q22636 77 22669 77Q22703 77 22737 98L22767 21Q22717 -14 22640 -14Q22595 -14 22564 -3Q22533 9 22518 23Q22503 37 22495 64Q22487 91 22486 106Q22485 122 22485 152L22485 419L22414 419L22424 492Q22471 496 22495 525Q22519 555 22539 609ZM22807 503L22986 503L22986 83L23043 80L23043 0L22805 0L22805 76L22838 79Q22867 82 22867 111L22867 389Q22867 406 22861 412Q22856 418 22842 418L22807 420L22807 503ZM22860 589Q22839 610 22839 642Q22839 674 22860 695Q22881 717 22915 717Q22949 717 22970 695Q22992 674 22992 642Q22992 610 22970 589Q22949 569 22915 569Q22881 569 22860 589ZM23331 73Q23440 73 23440 249Q23440 338 23415 384Q23391 430 23333 430Q23276 430 23249 386Q23222 342 23222 266Q23222 125 23274 89Q23297 73 23331 73ZM23101 252Q23101 326 23123 380Q23145 435 23182 464Q23253 518 23339 518Q23399 518 23440 498Q23482 479 23505 453Q23529 428 23545 379Q23562 331 23562 265Q23562 127 23495 56Q23428 -15 23323 -15Q23219 -15 23160 52Q23101 120 23101 252ZM23665 420L23623 423L23623 503L23792 503L23792 438Q23818 475 23861 496Q23904 518 23954 518Q24030 518 24071 474Q24113 431 24113 344L24113 83L24170 80L24170 0L23932 0L23932 76L23965 79Q23980 81 23987 87Q23994 94 23994 112L23994 318Q23994 373 23977 399Q23960 426 23912 426Q23865 426 23837 396Q23809 366 23809 325L23809 83L23866 80L23866 0L23628 0L23628 76L23661 79Q23676 81 23683 87Q23690 94 23690 112L23690 389Q23690 419 23665 420ZM24492 112L24492 419L24406 419L24406 503L24492 503L24492 541Q24492 639 24537 682Q24579 723 24660 723Q24741 723 24804 688L24775 608Q24727 633 24685 633Q24643 633 24627 612Q24611 592 24611 550L24611 503L24759 503L24759 419L24611 419L24611 84L24695 80L24695 0L24430 0L24430 76L24463 79Q24478 81 24485 87Q24492 94 24492 112ZM24861 112L24861 389Q24861 405 24855 411Q24850 418 24836 419L24794 422L24794 503L24963 503L24963 428Q24981 467 25019 492Q25057 518 25106 518Q25156 518 25201 496L25201 347L25108 340L25108 386Q25108 406 25098 411Q25087 416 25071 416Q25031 416 25005 387Q24980 359 24980 315L24980 83L25067 79L25067 0L24799 0L24799 76L24832 79Q24847 81 24854 87Q24861 94 24861 112ZM25710 483L25710 111Q25710 95 25715 89Q25721 83 25735 82L25767 80L25767 0L25608 0L25608 58L25605 59Q25555 -13 25468 -13Q25366 -13 25317 52Q25268 117 25268 230Q25268 366 25334 442Q25400 518 25532 518Q25617 518 25710 483ZM25594 159L25594 418Q25566 431 25517 431Q25450 431 25420 377Q25390 323 25390 234Q25390 72 25494 72Q25538 72 25566 98Q25594 125 25594 159ZM25864 419L25822 422L25822 503L25991 503L25991 438Q26047 518 26144 518Q26242 518 26276 438Q26332 518 26428 518Q26500 518 26539 474Q26578 431 26578 344L26578 83L26635 80L26635 0L26397 0L26397 76L26430 79Q26445 81 26451 87Q26458 94 26459 111L26459 318Q26459 373 26446 399Q26434 426 26388 426Q26342 426 26317 398Q26293 370 26293 323L26293 83L26348 80L26348 0L26112 0L26112 76L26145 79Q26160 81 26167 87Q26174 94 26174 112L26174 318Q26174 373 26161 399Q26149 426 26102 426Q26056 426 26032 397Q26008 368 26008 325L26008 83L26062 80L26062 0L25826 0L25826 76L25859 79Q25874 81 25881 87Q25888 94 25888 112L25889 112L25889 388Q25889 405 25883 411Q25878 418 25864 419ZM26945 518Q27020 518 27064 481Q27108 445 27108 379Q27108 335 27089 301Q27070 268 27042 249Q27014 230 26974 218Q26907 198 26823 198Q26826 145 26856 112Q26886 80 26948 80Q27010 80 27072 124L27110 43Q27090 25 27042 6Q26995 -13 26934 -13Q26812 -13 26755 54Q26698 122 26698 240Q26698 358 26763 438Q26828 518 26945 518ZM26899 289Q26936 296 26967 318Q26998 341 26998 372Q26998 433 26938 433Q26882 433 26852 388Q26822 344 26819 282Q26863 283 26899 289ZM27399 113L27509 483L27606 483L27710 111L27712 111L27780 420L27729 423L27729 503L27930 503L27930 426L27897 424Q27877 422 27870 400L27775 0L27631 0L27549 298L27546 298L27461 0L27314 0L27213 399Q27208 413 27202 418Q27197 423 27184 424L27155 426L27155 503L27384 503L27384 423L27328 420L27397 113L27399 113ZM28203 73Q28312 73 28312 249Q28312 338 28287 384Q28263 430 28205 430Q28148 430 28121 386Q28094 342 28094 266Q28094 125 28146 89Q28169 73 28203 73ZM27973 252Q27973 326 27995 380Q28017 435 28054 464Q28125 518 28211 518Q28271 518 28312 498Q28354 479 28377 453Q28401 428 28417 379Q28434 331 28434 265Q28434 127 28367 56Q28300 -15 28195 -15Q28091 -15 28032 52Q27973 120 27973 252ZM28563 112L28563 389Q28563 405 28557 411Q28552 418 28538 419L28496 422L28496 503L28665 503L28665 428Q28683 467 28721 492Q28759 518 28808 518Q28858 518 28903 496L28903 347L28810 340L28810 386Q28810 406 28800 411Q28789 416 28773 416Q28733 416 28707 387Q28682 359 28682 315L28682 83L28769 79L28769 0L28501 0L28501 76L28534 79Q28549 81 28556 87Q28563 94 28563 112ZM29025 112L29025 599Q29025 615 29019 621Q29014 627 29000 628L28965 630L28965 713L29143 713L29143 280Q29198 285 29239 314Q29280 343 29295 390Q29298 400 29298 406Q29298 423 29279 423L29241 425L29241 503L29448 503L29448 422L29400 420Q29387 318 29312 259L29410 83L29471 80L29471 0L29325 0L29211 208Q29178 199 29143 194L29143 83L29144 83L29201 80L29201 0L28963 0L28963 76L28996 79Q29011 81 29018 87Q29025 94 29025 112Z" fill="#ffffff" style=""></path></g></g></g></svg>