<svg version="1.1" xmlns="http://www.w3.org/2000/svg" viewBox="-2466.816033935547 -1024.000048828125 24481.2790802002 2545.664041137695"><desc>Created with Snap</desc><defs></defs><g><g transform="matrix(31.6601,0,0,31.6601,-2444.5566,-1096.7208)"><g><path fill="#195190" d="M39.5,73C22.7,73,9,59.3,9,42.5S22.7,12,39.5,12S70,25.7,70,42.5S56.3,73,39.5,73z M39.5,14   C23.8,14,11,26.8,11,42.5S23.8,71,39.5,71S68,58.2,68,42.5S55.2,14,39.5,14z" style=""></path></g><g><path fill="#195190" d="M39.5,47c-7.9,0-15.4-0.4-21-1.2C10.1,44.7,9,43.3,9,42s1.1-2.7,9.5-3.8c5.6-0.8,13.1-1.2,21-1.2   s15.4,0.4,21,1.2c8.4,1.1,9.5,2.6,9.5,3.8s-1.1,2.7-9.5,3.8C54.9,46.6,47.4,47,39.5,47z M11.2,42c1.8,1.3,12.2,3,28.3,3   s26.6-1.7,28.3-3c-1.8-1.3-12.2-3-28.3-3S12.9,40.7,11.2,42z" style=""></path></g><g><path fill="#195190" d="M39.5,73C29.9,73,22,59.3,22,42.5S29.9,12,39.5,12S57,25.7,57,42.5S49.1,73,39.5,73z M39.5,14   C31,14,24,26.8,24,42.5S31,71,39.5,71S55,58.2,55,42.5S48,14,39.5,14z" style=""></path></g><desc>Created with Snap</desc><defs></defs></g><g><g transform="matrix(1.024,0,0,-1.024,0,0)"><path d="M478 0L398 0L398 285Q398 324 393 353Q389 383 377 402Q365 422 344 432Q324 442 291 442Q244 442 206 411Q168 381 157 333L157 0L77 0L77 700L157 700L157 444L161 444Q187 475 223 493Q260 512 314 512Q356 512 387 502Q418 493 438 469Q459 445 468 404Q478 364 478 302L478 0ZM651 500L771 176L799 80L804 80L826 177L923 500L1004 500L856 51Q839 2 822 -44Q806 -90 786 -126Q766 -162 741 -184Q716 -205 683 -205Q647 -205 624 -195L638 -126Q651 -131 663 -131Q691 -131 717 -102Q743 -72 760 0L559 500L651 500ZM1090 -200L1090 500L1145 500L1160 440L1164 440Q1187 475 1223 493Q1260 512 1307 512Q1407 512 1456 453Q1505 394 1505 260Q1505 197 1488 146Q1472 96 1442 61Q1412 26 1369 7Q1327 -12 1275 -12Q1238 -12 1216 -8Q1195 -3 1170 8L1170 -200L1090 -200ZM1292 442Q1241 442 1211 415Q1182 389 1170 335L1170 87Q1188 73 1211 65Q1234 58 1272 58Q1341 58 1381 109Q1422 161 1422 261Q1422 302 1415 335Q1408 369 1392 392Q1377 416 1352 429Q1328 442 1292 442ZM1966 98L1996 40Q1966 16 1920 2Q1875 -12 1824 -12Q1767 -12 1725 6Q1683 25 1656 59Q1629 94 1616 142Q1603 190 1603 250Q1603 378 1660 445Q1717 512 1823 512Q1857 512 1891 504Q1925 497 1952 476Q1979 455 1996 416Q2013 378 2013 315Q2013 282 2007 242L1686 242Q1686 198 1695 164Q1704 130 1723 106Q1742 83 1772 70Q1803 58 1847 58Q1881 58 1915 70Q1949 82 1966 98ZM1824 442Q1765 442 1729 411Q1694 380 1687 305L1935 305Q1935 381 1906 411Q1877 442 1824 442ZM2392 500L2375 423Q2345 433 2318 433Q2275 433 2250 409Q2225 386 2219 350L2219 0L2139 0L2139 500L2195 500L2210 439L2214 439Q2233 473 2259 491Q2286 510 2327 510Q2356 510 2392 500ZM2479 -200L2479 500L2534 500L2549 440L2553 440Q2576 475 2612 493Q2649 512 2696 512Q2796 512 2845 453Q2894 394 2894 260Q2894 197 2877 146Q2861 96 2831 61Q2801 26 2758 7Q2716 -12 2664 -12Q2627 -12 2605 -8Q2584 -3 2559 8L2559 -200L2479 -200ZM2681 442Q2630 442 2600 415Q2571 389 2559 335L2559 87Q2577 73 2600 65Q2623 58 2661 58Q2730 58 2770 109Q2811 161 2811 261Q2811 302 2804 335Q2797 369 2781 392Q2766 416 2741 429Q2717 442 2681 442ZM3047 500L3167 176L3195 80L3200 80L3222 177L3319 500L3400 500L3252 51Q3235 2 3218 -44Q3202 -90 3182 -126Q3162 -162 3137 -184Q3112 -205 3079 -205Q3043 -205 3020 -195L3034 -126Q3047 -131 3059 -131Q3087 -131 3113 -102Q3139 -72 3156 0L2955 500L3047 500Z" fill="#195190" style=""></path></g></g><g transform="matrix(0.75,0,0,0.75,12.032,1082.752)"><g transform="matrix(0.512,0,0,-0.512,0,0)"><path d="M1336 1433L1336 0L1141 0L1141 652L369 652L369 0L174 0L174 1433L369 1433L369 794L1141 794L1141 1433L1336 1433ZM2520 1013L1955 -299Q1946 -319 1932 -331Q1919 -343 1891 -343L1759 -343L1944 59L1526 1013L1680 1013Q1703 1013 1716 1001Q1729 990 1735 976L2006 338Q2015 316 2021 294Q2028 272 2033 249Q2040 272 2047 294Q2054 316 2063 339L2326 976Q2332 992 2346 1002Q2361 1013 2378 1013L2520 1013ZM2860 -343L2682 -343L2682 1013L2788 1013Q2826 1013 2836 976L2851 856Q2916 935 2999 983Q3083 1031 3192 1031Q3279 1031 3350 997Q3421 964 3471 898Q3521 833 3548 736Q3575 639 3575 513Q3575 401 3545 304Q3515 208 3459 137Q3403 67 3321 26Q3240 -14 3138 -14Q3044 -14 2977 17Q2911 48 2860 105L2860 -343ZM3133 887Q3046 887 2980 847Q2915 807 2860 734L2860 244Q2909 178 2967 151Q3026 124 3098 124Q3239 124 3315 225Q3391 326 3391 513Q3391 612 3373 683Q3356 754 3323 799Q3290 845 3242 866Q3194 887 3133 887ZM4187 1029Q4278 1029 4355 998Q4432 968 4488 910Q4544 853 4575 768Q4607 684 4607 576Q4607 534 4598 520Q4589 506 4564 506L3890 506Q3892 410 3916 339Q3940 268 3982 220Q4024 173 4082 149Q4140 126 4212 126Q4279 126 4327 141Q4376 157 4411 175Q4446 193 4469 208Q4493 224 4510 224Q4532 224 4544 207L4594 142Q4561 102 4515 72Q4469 43 4416 24Q4364 5 4308 -5Q4252 -14 4197 -14Q4092 -14 4003 21Q3915 57 3850 125Q3786 194 3750 295Q3714 396 3714 527Q3714 633 3746 725Q3779 817 3840 884Q3901 952 3989 990Q4077 1029 4187 1029ZM4191 898Q4062 898 3988 823Q3914 749 3896 617L4447 617Q4447 679 4430 730Q4413 782 4380 819Q4347 857 4299 877Q4252 898 4191 898ZM5012 0L4834 0L4834 1013L4936 1013Q4965 1013 4976 1002Q4987 991 4991 964L5003 806Q5055 912 5131 971Q5208 1031 5311 1031Q5353 1031 5387 1021Q5421 1012 5450 995L5427 862Q5420 837 5396 837Q5382 837 5353 846Q5324 856 5272 856Q5179 856 5116 802Q5054 748 5012 645L5012 0ZM6111 536L5881 536L5881 0L5688 0L5688 1433L6111 1433Q6247 1433 6347 1401Q6448 1370 6514 1312Q6580 1254 6612 1172Q6645 1090 6645 989Q6645 889 6610 806Q6575 723 6507 663Q6440 603 6340 569Q6240 536 6111 536ZM5881 1280L5881 690L6111 690Q6194 690 6257 712Q6321 734 6364 773Q6407 813 6429 868Q6451 923 6451 989Q6451 1126 6366 1203Q6282 1280 6111 1280L5881 1280ZM7724 1013L7159 -299Q7150 -319 7136 -331Q7123 -343 7095 -343L6963 -343L7148 59L6730 1013L6884 1013Q6907 1013 6920 1001Q6933 990 6939 976L7210 338Q7219 316 7225 294Q7232 272 7237 249Q7244 272 7251 294Q7258 316 7267 339L7530 976Q7536 992 7550 1002Q7565 1013 7582 1013L7724 1013ZM7868 110Q7868 136 7877 159Q7887 182 7903 199Q7920 216 7943 226Q7966 236 7992 236Q8018 236 8041 226Q8064 216 8081 199Q8098 182 8107 159Q8117 136 8117 110Q8117 83 8107 60Q8098 38 8081 21Q8064 4 8041 -6Q8018 -15 7992 -15Q7966 -15 7943 -6Q7920 4 7903 21Q7887 38 7877 60Q7868 83 7868 110ZM7868 860Q7868 886 7877 909Q7887 932 7903 949Q7920 966 7943 976Q7966 986 7992 986Q8018 986 8041 976Q8064 966 8081 949Q8098 932 8107 909Q8117 886 8117 860Q8117 833 8107 810Q8098 788 8081 771Q8064 754 8041 744Q8018 735 7992 735Q7966 735 7943 744Q7920 754 7903 771Q7887 788 7877 810Q7868 833 7868 860ZM9410 1433L9983 0L9833 0Q9807 0 9791 13Q9775 26 9767 46L9633 392L8990 392L8856 46Q8849 28 8832 14Q8815 0 8790 0L8640 0L9213 1433L9410 1433ZM9269 1114L9044 532L9579 532L9354 1115Q9332 1169 9311 1250Q9300 1209 9289 1174Q9279 1140 9269 1114ZM10314 0L10136 0L10136 1013L10242 1013Q10280 1013 10290 976L10304 866Q10370 939 10451 984Q10533 1029 10640 1029Q10723 1029 10786 1001Q10850 974 10892 923Q10935 873 10957 802Q10979 731 10979 645L10979 0L10801 0L10801 645Q10801 760 10748 823Q10696 887 10588 887Q10509 887 10440 849Q10372 811 10314 746L10314 0ZM12378 648L12378 0L12299 0Q12273 0 12257 8Q12241 16 12236 42L12216 136Q12176 100 12138 71Q12100 43 12058 23Q12016 4 11968 -6Q11921 -16 11863 -16Q11804 -16 11752 0Q11701 17 11663 50Q11625 83 11602 133Q11580 184 11580 253Q11580 313 11613 368Q11646 424 11719 467Q11793 510 11912 537Q12031 565 12203 569L12203 648Q12203 766 12152 826Q12102 887 12003 887Q11938 887 11893 870Q11849 854 11816 833Q11784 813 11760 796Q11737 780 11714 780Q11696 780 11682 789Q11669 799 11661 813L11629 870Q11713 951 11810 991Q11907 1031 12025 1031Q12110 1031 12176 1003Q12242 975 12287 925Q12332 875 12355 804Q12378 733 12378 648ZM11916 109Q11963 109 12002 118Q12041 128 12075 145Q12110 163 12141 188Q12173 213 12203 245L12203 456Q12080 452 11994 436Q11908 421 11854 396Q11800 371 11775 337Q11751 303 11751 261Q11751 221 11764 192Q11777 163 11799 144Q11821 126 11851 117Q11881 109 11916 109ZM12624 1013L12802 1013L12802 367Q12802 252 12855 189Q12908 126 13015 126Q13093 126 13162 163Q13231 200 13289 266L13289 1013L13467 1013L13467 0L13361 0Q13323 0 13313 37L13299 146Q13233 73 13151 28Q13069 -16 12963 -16Q12880 -16 12816 11Q12753 39 12710 89Q12667 139 12645 210Q12624 281 12624 367L12624 1013ZM14067 -16Q13947 -16 13882 51Q13818 118 13818 244L13818 864L13696 864Q13680 864 13669 873Q13658 883 13658 903L13658 974L13824 995L13865 1308Q13867 1323 13878 1332Q13889 1342 13906 1342L13996 1342L13996 993L14286 993L14286 864L13996 864L13996 256Q13996 192 14027 161Q14058 130 14107 130Q14135 130 14155 137Q14176 145 14191 154Q14206 163 14216 170Q14227 178 14235 178Q14249 178 14260 161L14312 76Q14266 33 14201 8Q14136 -16 14067 -16ZM14916 1029Q15027 1029 15116 992Q15206 955 15268 887Q15331 819 15364 722Q15398 626 15398 507Q15398 387 15364 291Q15331 195 15268 127Q15206 59 15116 22Q15027 -14 14916 -14Q14805 -14 14715 22Q14626 59 14563 127Q14500 195 14466 291Q14432 387 14432 507Q14432 626 14466 722Q14500 819 14563 887Q14626 955 14715 992Q14805 1029 14916 1029ZM14916 125Q15066 125 15140 225Q15214 326 15214 506Q15214 687 15140 788Q15066 889 14916 889Q14840 889 14784 863Q14728 837 14690 788Q14653 739 14634 667Q14616 596 14616 506Q14616 416 14634 345Q14653 274 14690 225Q14728 177 14784 151Q14840 125 14916 125ZM15796 0L15618 0L15618 1013L15724 1013Q15762 1013 15772 976L15785 872Q15841 941 15910 985Q15980 1029 16072 1029Q16175 1029 16238 972Q16302 915 16330 818Q16351 873 16385 913Q16420 953 16463 979Q16506 1005 16554 1017Q16603 1029 16653 1029Q16733 1029 16795 1003Q16858 978 16901 929Q16945 880 16968 808Q16991 737 16991 645L16991 0L16813 0L16813 645Q16813 764 16761 825Q16709 887 16610 887Q16566 887 16526 871Q16487 856 16457 826Q16427 796 16409 750Q16392 705 16392 645L16392 0L16214 0L16214 645Q16214 767 16165 827Q16116 887 16022 887Q15956 887 15899 851Q15843 816 15796 755L15796 0ZM18004 648L18004 0L17925 0Q17899 0 17883 8Q17867 16 17862 42L17842 136Q17802 100 17764 71Q17726 43 17684 23Q17642 4 17594 -6Q17547 -16 17489 -16Q17430 -16 17378 0Q17327 17 17289 50Q17251 83 17228 133Q17206 184 17206 253Q17206 313 17239 368Q17272 424 17345 467Q17419 510 17538 537Q17657 565 17829 569L17829 648Q17829 766 17778 826Q17728 887 17629 887Q17564 887 17519 870Q17475 854 17442 833Q17410 813 17386 796Q17363 780 17340 780Q17322 780 17308 789Q17295 799 17287 813L17255 870Q17339 951 17436 991Q17533 1031 17651 1031Q17736 1031 17802 1003Q17868 975 17913 925Q17958 875 17981 804Q18004 733 18004 648ZM17542 109Q17589 109 17628 118Q17667 128 17701 145Q17736 163 17767 188Q17799 213 17829 245L17829 456Q17706 452 17620 436Q17534 421 17480 396Q17426 371 17401 337Q17377 303 17377 261Q17377 221 17390 192Q17403 163 17425 144Q17447 126 17477 117Q17507 109 17542 109ZM18581 -16Q18461 -16 18396 51Q18332 118 18332 244L18332 864L18210 864Q18194 864 18183 873Q18172 883 18172 903L18172 974L18338 995L18379 1308Q18381 1323 18392 1332Q18403 1342 18420 1342L18510 1342L18510 993L18800 993L18800 864L18510 864L18510 256Q18510 192 18541 161Q18572 130 18621 130Q18649 130 18669 137Q18690 145 18705 154Q18720 163 18730 170Q18741 178 18749 178Q18763 178 18774 161L18826 76Q18780 33 18715 8Q18650 -16 18581 -16ZM19040 1013L19218 1013L19218 0L19040 0L19040 1013ZM19258 1331Q19258 1305 19247 1282Q19237 1260 19219 1242Q19202 1225 19179 1215Q19156 1205 19130 1205Q19104 1205 19081 1215Q19059 1225 19041 1242Q19024 1260 19014 1282Q19004 1305 19004 1331Q19004 1357 19014 1380Q19024 1404 19041 1421Q19059 1439 19081 1449Q19104 1459 19130 1459Q19156 1459 19179 1449Q19202 1439 19219 1421Q19237 1404 19247 1380Q19258 1357 19258 1331ZM20270 897L20223 833Q20215 822 20207 816Q20199 810 20184 810Q20169 810 20151 822Q20134 835 20107 850Q20080 865 20041 877Q20003 890 19947 890Q19873 890 19816 863Q19759 837 19720 787Q19682 737 19662 666Q19643 595 19643 507Q19643 415 19664 343Q19685 272 19723 223Q19761 175 19815 149Q19870 124 19938 124Q20003 124 20045 139Q20087 155 20115 174Q20143 193 20161 208Q20179 224 20197 224Q20220 224 20231 207L20281 142Q20215 61 20116 23Q20017 -14 19907 -14Q19812 -14 19730 21Q19649 56 19589 122Q19529 189 19494 286Q19460 383 19460 507Q19460 620 19491 716Q19523 812 19583 881Q19644 951 19733 990Q19822 1029 19937 1029Q20043 1029 20125 994Q20207 960 20270 897ZM21030 0L20852 0L20852 1473L21030 1473L21030 877Q21095 946 21174 987Q21253 1029 21356 1029Q21439 1029 21502 1001Q21566 974 21608 923Q21651 873 21673 802Q21695 731 21695 645L21695 0L21517 0L21517 645Q21517 760 21464 823Q21412 887 21304 887Q21225 887 21156 849Q21088 811 21030 746L21030 0ZM22826 1013L22261 -299Q22252 -319 22238 -331Q22225 -343 22197 -343L22065 -343L22250 59L21832 1013L21986 1013Q22009 1013 22022 1001Q22035 990 22041 976L22312 338Q22321 316 22327 294Q22334 272 22339 249Q22346 272 22353 294Q22360 316 22369 339L22632 976Q22638 992 22652 1002Q22667 1013 22684 1013L22826 1013ZM23166 -343L22988 -343L22988 1013L23094 1013Q23132 1013 23142 976L23157 856Q23222 935 23305 983Q23389 1031 23498 1031Q23585 1031 23656 997Q23727 964 23777 898Q23827 833 23854 736Q23881 639 23881 513Q23881 401 23851 304Q23821 208 23765 137Q23709 67 23627 26Q23546 -14 23444 -14Q23350 -14 23283 17Q23217 48 23166 105L23166 -343ZM23439 887Q23352 887 23286 847Q23221 807 23166 734L23166 244Q23215 178 23273 151Q23332 124 23404 124Q23545 124 23621 225Q23697 326 23697 513Q23697 612 23679 683Q23662 754 23629 799Q23596 845 23548 866Q23500 887 23439 887ZM24493 1029Q24584 1029 24661 998Q24738 968 24794 910Q24850 853 24881 768Q24913 684 24913 576Q24913 534 24904 520Q24895 506 24870 506L24196 506Q24198 410 24222 339Q24246 268 24288 220Q24330 173 24388 149Q24446 126 24518 126Q24585 126 24633 141Q24682 157 24717 175Q24752 193 24775 208Q24799 224 24816 224Q24838 224 24850 207L24900 142Q24867 102 24821 72Q24775 43 24722 24Q24670 5 24614 -5Q24558 -14 24503 -14Q24398 -14 24309 21Q24221 57 24156 125Q24092 194 24056 295Q24020 396 24020 527Q24020 633 24052 725Q24085 817 24146 884Q24207 952 24295 990Q24383 1029 24493 1029ZM24497 898Q24368 898 24294 823Q24220 749 24202 617L24753 617Q24753 679 24736 730Q24719 782 24686 819Q24653 857 24605 877Q24558 898 24497 898ZM25318 0L25140 0L25140 1013L25242 1013Q25271 1013 25282 1002Q25293 991 25297 964L25309 806Q25361 912 25437 971Q25514 1031 25617 1031Q25659 1031 25693 1021Q25727 1012 25756 995L25733 862Q25726 837 25702 837Q25688 837 25659 846Q25630 856 25578 856Q25485 856 25422 802Q25360 748 25318 645L25318 0ZM26124 -343L25946 -343L25946 1013L26052 1013Q26090 1013 26100 976L26115 856Q26180 935 26263 983Q26347 1031 26456 1031Q26543 1031 26614 997Q26685 964 26735 898Q26785 833 26812 736Q26839 639 26839 513Q26839 401 26809 304Q26779 208 26723 137Q26667 67 26585 26Q26504 -14 26402 -14Q26308 -14 26241 17Q26175 48 26124 105L26124 -343ZM26397 887Q26310 887 26244 847Q26179 807 26124 734L26124 244Q26173 178 26231 151Q26290 124 26362 124Q26503 124 26579 225Q26655 326 26655 513Q26655 612 26637 683Q26620 754 26587 799Q26554 845 26506 866Q26458 887 26397 887ZM27794 648L27794 0L27715 0Q27689 0 27673 8Q27657 16 27652 42L27632 136Q27592 100 27554 71Q27516 43 27474 23Q27432 4 27384 -6Q27337 -16 27279 -16Q27220 -16 27168 0Q27117 17 27079 50Q27041 83 27018 133Q26996 184 26996 253Q26996 313 27029 368Q27062 424 27135 467Q27209 510 27328 537Q27447 565 27619 569L27619 648Q27619 766 27568 826Q27518 887 27419 887Q27354 887 27309 870Q27265 854 27232 833Q27200 813 27176 796Q27153 780 27130 780Q27112 780 27098 789Q27085 799 27077 813L27045 870Q27129 951 27226 991Q27323 1031 27441 1031Q27526 1031 27592 1003Q27658 975 27703 925Q27748 875 27771 804Q27794 733 27794 648ZM27332 109Q27379 109 27418 118Q27457 128 27491 145Q27526 163 27557 188Q27589 213 27619 245L27619 456Q27496 452 27410 436Q27324 421 27270 396Q27216 371 27191 337Q27167 303 27167 261Q27167 221 27180 192Q27193 163 27215 144Q27237 126 27267 117Q27297 109 27332 109ZM28242 0L28064 0L28064 1013L28166 1013Q28195 1013 28206 1002Q28217 991 28221 964L28233 806Q28285 912 28361 971Q28438 1031 28541 1031Q28583 1031 28617 1021Q28651 1012 28680 995L28657 862Q28650 837 28626 837Q28612 837 28583 846Q28554 856 28502 856Q28409 856 28346 802Q28284 748 28242 645L28242 0ZM29614 648L29614 0L29535 0Q29509 0 29493 8Q29477 16 29472 42L29452 136Q29412 100 29374 71Q29336 43 29294 23Q29252 4 29204 -6Q29157 -16 29099 -16Q29040 -16 28988 0Q28937 17 28899 50Q28861 83 28838 133Q28816 184 28816 253Q28816 313 28849 368Q28882 424 28955 467Q29029 510 29148 537Q29267 565 29439 569L29439 648Q29439 766 29388 826Q29338 887 29239 887Q29174 887 29129 870Q29085 854 29052 833Q29020 813 28996 796Q28973 780 28950 780Q28932 780 28918 789Q28905 799 28897 813L28865 870Q28949 951 29046 991Q29143 1031 29261 1031Q29346 1031 29412 1003Q29478 975 29523 925Q29568 875 29591 804Q29614 733 29614 648ZM29152 109Q29199 109 29238 118Q29277 128 29311 145Q29346 163 29377 188Q29409 213 29439 245L29439 456Q29316 452 29230 436Q29144 421 29090 396Q29036 371 29011 337Q28987 303 28987 261Q28987 221 29000 192Q29013 163 29035 144Q29057 126 29087 117Q29117 109 29152 109ZM30062 0L29884 0L29884 1013L29990 1013Q30028 1013 30038 976L30051 872Q30107 941 30176 985Q30246 1029 30338 1029Q30441 1029 30504 972Q30568 915 30596 818Q30617 873 30651 913Q30686 953 30729 979Q30772 1005 30820 1017Q30869 1029 30919 1029Q30999 1029 31061 1003Q31124 978 31167 929Q31211 880 31234 808Q31257 737 31257 645L31257 0L31079 0L31079 645Q31079 764 31027 825Q30975 887 30876 887Q30832 887 30792 871Q30753 856 30723 826Q30693 796 30675 750Q30658 705 30658 645L30658 0L30480 0L30480 645Q30480 767 30431 827Q30382 887 30288 887Q30222 887 30165 851Q30109 816 30062 755L30062 0ZM31927 1029Q32018 1029 32095 998Q32172 968 32228 910Q32284 853 32315 768Q32347 684 32347 576Q32347 534 32338 520Q32329 506 32304 506L31630 506Q31632 410 31656 339Q31680 268 31722 220Q31764 173 31822 149Q31880 126 31952 126Q32019 126 32067 141Q32116 157 32151 175Q32186 193 32209 208Q32233 224 32250 224Q32272 224 32284 207L32334 142Q32301 102 32255 72Q32209 43 32156 24Q32104 5 32048 -5Q31992 -14 31937 -14Q31832 -14 31743 21Q31655 57 31590 125Q31526 194 31490 295Q31454 396 31454 527Q31454 633 31486 725Q31519 817 31580 884Q31641 952 31729 990Q31817 1029 31927 1029ZM31931 898Q31802 898 31728 823Q31654 749 31636 617L32187 617Q32187 679 32170 730Q32153 782 32120 819Q32087 857 32039 877Q31992 898 31931 898ZM32881 -16Q32761 -16 32696 51Q32632 118 32632 244L32632 864L32510 864Q32494 864 32483 873Q32472 883 32472 903L32472 974L32638 995L32679 1308Q32681 1323 32692 1332Q32703 1342 32720 1342L32810 1342L32810 993L33100 993L33100 864L32810 864L32810 256Q32810 192 32841 161Q32872 130 32921 130Q32949 130 32969 137Q32990 145 33005 154Q33020 163 33030 170Q33041 178 33049 178Q33063 178 33074 161L33126 76Q33080 33 33015 8Q32950 -16 32881 -16ZM33721 1029Q33812 1029 33889 998Q33966 968 34022 910Q34078 853 34109 768Q34141 684 34141 576Q34141 534 34132 520Q34123 506 34098 506L33424 506Q33426 410 33450 339Q33474 268 33516 220Q33558 173 33616 149Q33674 126 33746 126Q33813 126 33861 141Q33910 157 33945 175Q33980 193 34003 208Q34027 224 34044 224Q34066 224 34078 207L34128 142Q34095 102 34049 72Q34003 43 33950 24Q33898 5 33842 -5Q33786 -14 33731 -14Q33626 -14 33537 21Q33449 57 33384 125Q33320 194 33284 295Q33248 396 33248 527Q33248 633 33280 725Q33313 817 33374 884Q33435 952 33523 990Q33611 1029 33721 1029ZM33725 898Q33596 898 33522 823Q33448 749 33430 617L33981 617Q33981 679 33964 730Q33947 782 33914 819Q33881 857 33833 877Q33786 898 33725 898ZM34546 0L34368 0L34368 1013L34470 1013Q34499 1013 34510 1002Q34521 991 34525 964L34537 806Q34589 912 34665 971Q34742 1031 34845 1031Q34887 1031 34921 1021Q34955 1012 34984 995L34961 862Q34954 837 34930 837Q34916 837 34887 846Q34858 856 34806 856Q34713 856 34650 802Q34588 748 34546 645L34546 0ZM35970 1029Q36081 1029 36170 992Q36260 955 36322 887Q36385 819 36418 722Q36452 626 36452 507Q36452 387 36418 291Q36385 195 36322 127Q36260 59 36170 22Q36081 -14 35970 -14Q35859 -14 35769 22Q35680 59 35617 127Q35554 195 35520 291Q35486 387 35486 507Q35486 626 35520 722Q35554 819 35617 887Q35680 955 35769 992Q35859 1029 35970 1029ZM35970 125Q36120 125 36194 225Q36268 326 36268 506Q36268 687 36194 788Q36120 889 35970 889Q35894 889 35838 863Q35782 837 35744 788Q35707 739 35688 667Q35670 596 35670 506Q35670 416 35688 345Q35707 274 35744 225Q35782 177 35838 151Q35894 125 35970 125ZM36850 -343L36672 -343L36672 1013L36778 1013Q36816 1013 36826 976L36841 856Q36906 935 36989 983Q37073 1031 37182 1031Q37269 1031 37340 997Q37411 964 37461 898Q37511 833 37538 736Q37565 639 37565 513Q37565 401 37535 304Q37505 208 37449 137Q37393 67 37311 26Q37230 -14 37128 -14Q37034 -14 36967 17Q36901 48 36850 105L36850 -343ZM37123 887Q37036 887 36970 847Q36905 807 36850 734L36850 244Q36899 178 36957 151Q37016 124 37088 124Q37229 124 37305 225Q37381 326 37381 513Q37381 612 37363 683Q37346 754 37313 799Q37280 845 37232 866Q37184 887 37123 887ZM38083 -16Q37963 -16 37898 51Q37834 118 37834 244L37834 864L37712 864Q37696 864 37685 873Q37674 883 37674 903L37674 974L37840 995L37881 1308Q37883 1323 37894 1332Q37905 1342 37922 1342L38012 1342L38012 993L38302 993L38302 864L38012 864L38012 256Q38012 192 38043 161Q38074 130 38123 130Q38151 130 38171 137Q38192 145 38207 154Q38222 163 38232 170Q38243 178 38251 178Q38265 178 38276 161L38328 76Q38282 33 38217 8Q38152 -16 38083 -16ZM38542 1013L38720 1013L38720 0L38542 0L38542 1013ZM38760 1331Q38760 1305 38749 1282Q38739 1260 38721 1242Q38704 1225 38681 1215Q38658 1205 38632 1205Q38606 1205 38583 1215Q38561 1225 38543 1242Q38526 1260 38516 1282Q38506 1305 38506 1331Q38506 1357 38516 1380Q38526 1404 38543 1421Q38561 1439 38583 1449Q38606 1459 38632 1459Q38658 1459 38681 1449Q38704 1439 38721 1421Q38739 1404 38749 1380Q38760 1357 38760 1331ZM39212 0L39034 0L39034 1013L39140 1013Q39178 1013 39188 976L39201 872Q39257 941 39326 985Q39396 1029 39488 1029Q39591 1029 39654 972Q39718 915 39746 818Q39767 873 39801 913Q39836 953 39879 979Q39922 1005 39970 1017Q40019 1029 40069 1029Q40149 1029 40211 1003Q40274 978 40317 929Q40361 880 40384 808Q40407 737 40407 645L40407 0L40229 0L40229 645Q40229 764 40177 825Q40125 887 40026 887Q39982 887 39942 871Q39903 856 39873 826Q39843 796 39825 750Q39808 705 39808 645L39808 0L39630 0L39630 645Q39630 767 39581 827Q39532 887 39438 887Q39372 887 39315 851Q39259 816 39212 755L39212 0ZM40696 1013L40874 1013L40874 0L40696 0L40696 1013ZM40914 1331Q40914 1305 40903 1282Q40893 1260 40875 1242Q40858 1225 40835 1215Q40812 1205 40786 1205Q40760 1205 40737 1215Q40715 1225 40697 1242Q40680 1260 40670 1282Q40660 1305 40660 1331Q40660 1357 40670 1380Q40680 1404 40697 1421Q40715 1439 40737 1449Q40760 1459 40786 1459Q40812 1459 40835 1449Q40858 1439 40875 1421Q40893 1404 40903 1380Q40914 1357 40914 1331ZM41895 1013L41895 937Q41895 918 41888 900Q41881 883 41870 869L41322 139L41875 139L41875 0L41112 0L41112 74Q41112 87 41118 104Q41125 122 41137 138L41688 873L41143 873L41143 1013L41895 1013ZM42856 648L42856 0L42777 0Q42751 0 42735 8Q42719 16 42714 42L42694 136Q42654 100 42616 71Q42578 43 42536 23Q42494 4 42446 -6Q42399 -16 42341 -16Q42282 -16 42230 0Q42179 17 42141 50Q42103 83 42080 133Q42058 184 42058 253Q42058 313 42091 368Q42124 424 42197 467Q42271 510 42390 537Q42509 565 42681 569L42681 648Q42681 766 42630 826Q42580 887 42481 887Q42416 887 42371 870Q42327 854 42294 833Q42262 813 42238 796Q42215 780 42192 780Q42174 780 42160 789Q42147 799 42139 813L42107 870Q42191 951 42288 991Q42385 1031 42503 1031Q42588 1031 42654 1003Q42720 975 42765 925Q42810 875 42833 804Q42856 733 42856 648ZM42394 109Q42441 109 42480 118Q42519 128 42553 145Q42588 163 42619 188Q42651 213 42681 245L42681 456Q42558 452 42472 436Q42386 421 42332 396Q42278 371 42253 337Q42229 303 42229 261Q42229 221 42242 192Q42255 163 42277 144Q42299 126 42329 117Q42359 109 42394 109ZM43433 -16Q43313 -16 43248 51Q43184 118 43184 244L43184 864L43062 864Q43046 864 43035 873Q43024 883 43024 903L43024 974L43190 995L43231 1308Q43233 1323 43244 1332Q43255 1342 43272 1342L43362 1342L43362 993L43652 993L43652 864L43362 864L43362 256Q43362 192 43393 161Q43424 130 43473 130Q43501 130 43521 137Q43542 145 43557 154Q43572 163 43582 170Q43593 178 43601 178Q43615 178 43626 161L43678 76Q43632 33 43567 8Q43502 -16 43433 -16ZM43892 1013L44070 1013L44070 0L43892 0L43892 1013ZM44110 1331Q44110 1305 44099 1282Q44089 1260 44071 1242Q44054 1225 44031 1215Q44008 1205 43982 1205Q43956 1205 43933 1215Q43911 1225 43893 1242Q43876 1260 43866 1282Q43856 1305 43856 1331Q43856 1357 43866 1380Q43876 1404 43893 1421Q43911 1439 43933 1449Q43956 1459 43982 1459Q44008 1459 44031 1449Q44054 1439 44071 1421Q44089 1404 44099 1380Q44110 1357 44110 1331ZM44794 1029Q44905 1029 44994 992Q45084 955 45146 887Q45209 819 45242 722Q45276 626 45276 507Q45276 387 45242 291Q45209 195 45146 127Q45084 59 44994 22Q44905 -14 44794 -14Q44683 -14 44593 22Q44504 59 44441 127Q44378 195 44344 291Q44310 387 44310 507Q44310 626 44344 722Q44378 819 44441 887Q44504 955 44593 992Q44683 1029 44794 1029ZM44794 125Q44944 125 45018 225Q45092 326 45092 506Q45092 687 45018 788Q44944 889 44794 889Q44718 889 44662 863Q44606 837 44568 788Q44531 739 44512 667Q44494 596 44494 506Q44494 416 44512 345Q44531 274 44568 225Q44606 177 44662 151Q44718 125 44794 125ZM45674 0L45496 0L45496 1013L45602 1013Q45640 1013 45650 976L45664 866Q45730 939 45811 984Q45893 1029 46000 1029Q46083 1029 46146 1001Q46210 974 46252 923Q46295 873 46317 802Q46339 731 46339 645L46339 0L46161 0L46161 645Q46161 760 46108 823Q46056 887 45948 887Q45869 887 45800 849Q45732 811 45674 746L45674 0ZM47213 0L47034 0L47034 861L46922 874Q46901 879 46887 889Q46874 900 46874 920L46874 993L47034 993L47034 1091Q47034 1178 47058 1245Q47083 1313 47128 1359Q47174 1406 47238 1430Q47302 1454 47382 1454Q47450 1454 47508 1434L47504 1345Q47503 1325 47487 1321Q47471 1317 47442 1317L47411 1317Q47365 1317 47327 1305Q47290 1293 47263 1266Q47236 1239 47221 1195Q47207 1151 47207 1086L47207 993L47500 993L47500 864L47213 864L47213 0ZM47846 0L47668 0L47668 1013L47770 1013Q47799 1013 47810 1002Q47821 991 47825 964L47837 806Q47889 912 47965 971Q48042 1031 48145 1031Q48187 1031 48221 1021Q48255 1012 48284 995L48261 862Q48254 837 48230 837Q48216 837 48187 846Q48158 856 48106 856Q48013 856 47950 802Q47888 748 47846 645L47846 0ZM49218 648L49218 0L49139 0Q49113 0 49097 8Q49081 16 49076 42L49056 136Q49016 100 48978 71Q48940 43 48898 23Q48856 4 48808 -6Q48761 -16 48703 -16Q48644 -16 48592 0Q48541 17 48503 50Q48465 83 48442 133Q48420 184 48420 253Q48420 313 48453 368Q48486 424 48559 467Q48633 510 48752 537Q48871 565 49043 569L49043 648Q49043 766 48992 826Q48942 887 48843 887Q48778 887 48733 870Q48689 854 48656 833Q48624 813 48600 796Q48577 780 48554 780Q48536 780 48522 789Q48509 799 48501 813L48469 870Q48553 951 48650 991Q48747 1031 48865 1031Q48950 1031 49016 1003Q49082 975 49127 925Q49172 875 49195 804Q49218 733 49218 648ZM48756 109Q48803 109 48842 118Q48881 128 48915 145Q48950 163 48981 188Q49013 213 49043 245L49043 456Q48920 452 48834 436Q48748 421 48694 396Q48640 371 48615 337Q48591 303 48591 261Q48591 221 48604 192Q48617 163 48639 144Q48661 126 48691 117Q48721 109 48756 109ZM49666 0L49488 0L49488 1013L49594 1013Q49632 1013 49642 976L49655 872Q49711 941 49780 985Q49850 1029 49942 1029Q50045 1029 50108 972Q50172 915 50200 818Q50221 873 50255 913Q50290 953 50333 979Q50376 1005 50424 1017Q50473 1029 50523 1029Q50603 1029 50665 1003Q50728 978 50771 929Q50815 880 50838 808Q50861 737 50861 645L50861 0L50683 0L50683 645Q50683 764 50631 825Q50579 887 50480 887Q50436 887 50396 871Q50357 856 50327 826Q50297 796 50279 750Q50262 705 50262 645L50262 0L50084 0L50084 645Q50084 767 50035 827Q49986 887 49892 887Q49826 887 49769 851Q49713 816 49666 755L49666 0ZM51531 1029Q51622 1029 51699 998Q51776 968 51832 910Q51888 853 51919 768Q51951 684 51951 576Q51951 534 51942 520Q51933 506 51908 506L51234 506Q51236 410 51260 339Q51284 268 51326 220Q51368 173 51426 149Q51484 126 51556 126Q51623 126 51671 141Q51720 157 51755 175Q51790 193 51813 208Q51837 224 51854 224Q51876 224 51888 207L51938 142Q51905 102 51859 72Q51813 43 51760 24Q51708 5 51652 -5Q51596 -14 51541 -14Q51436 -14 51347 21Q51259 57 51194 125Q51130 194 51094 295Q51058 396 51058 527Q51058 633 51090 725Q51123 817 51184 884Q51245 952 51333 990Q51421 1029 51531 1029ZM51535 898Q51406 898 51332 823Q51258 749 51240 617L51791 617Q51791 679 51774 730Q51757 782 51724 819Q51691 857 51643 877Q51596 898 51535 898ZM52374 0L52046 1013L52186 1013Q52208 1013 52222 1002Q52236 991 52241 976L52435 324Q52443 288 52450 254Q52457 221 52462 187Q52470 221 52480 254Q52490 288 52501 324L52715 980Q52720 995 52732 1005Q52745 1015 52764 1015L52841 1015Q52861 1015 52874 1005Q52887 995 52892 980L53101 324Q53112 289 53120 255Q53129 221 53137 188Q53142 221 53150 257Q53158 293 53167 324L53365 976Q53370 992 53384 1002Q53398 1013 53417 1013L53551 1013L53223 0L53082 0Q53056 0 53046 34L52822 721Q52814 744 52809 767Q52804 791 52799 814Q52794 791 52789 767Q52784 743 52776 720L52549 34Q52538 0 52508 0L52374 0ZM54120 1029Q54231 1029 54320 992Q54410 955 54472 887Q54535 819 54568 722Q54602 626 54602 507Q54602 387 54568 291Q54535 195 54472 127Q54410 59 54320 22Q54231 -14 54120 -14Q54009 -14 53919 22Q53830 59 53767 127Q53704 195 53670 291Q53636 387 53636 507Q53636 626 53670 722Q53704 819 53767 887Q53830 955 53919 992Q54009 1029 54120 1029ZM54120 125Q54270 125 54344 225Q54418 326 54418 506Q54418 687 54344 788Q54270 889 54120 889Q54044 889 53988 863Q53932 837 53894 788Q53857 739 53838 667Q53820 596 53820 506Q53820 416 53838 345Q53857 274 53894 225Q53932 177 53988 151Q54044 125 54120 125ZM55000 0L54822 0L54822 1013L54924 1013Q54953 1013 54964 1002Q54975 991 54979 964L54991 806Q55043 912 55119 971Q55196 1031 55299 1031Q55341 1031 55375 1021Q55409 1012 55438 995L55415 862Q55408 837 55384 837Q55370 837 55341 846Q55312 856 55260 856Q55167 856 55104 802Q55042 748 55000 645L55000 0ZM55634 1473L55813 1473L55813 606L55859 606Q55879 606 55892 611Q55905 617 55921 634L56241 977Q56256 993 56271 1003Q56286 1013 56311 1013L56473 1013L56100 616Q56086 599 56072 586Q56059 573 56042 563Q56060 551 56074 535Q56089 520 56102 500L56498 0L56338 0Q56316 0 56300 8Q56285 17 56271 35L55938 450Q55923 471 55908 477Q55893 484 55863 484L55813 484L55813 0L55634 0L55634 1473Z" fill="#195190" style=""></path></g></g></g></svg>