<svg version="1.1" xmlns="http://www.w3.org/2000/svg" viewBox="-18368.737427902222 -1157.1200439453125 25639.96003417969 2803.5100341796874"><desc>Created with Snap</desc><defs></defs><g><rect x="-18368.737427902222" y="-1157.1200439453125" width="25639.96003417969" height="2803.5100341796874" fill="#195190" style=""></rect><g transform="matrix(35.887,0,0,35.887,4451.9291,-1280.5646)"><g><path fill="#e0e0e0" d="M39.5,73C22.7,73,9,59.3,9,42.5S22.7,12,39.5,12S70,25.7,70,42.5S56.3,73,39.5,73z M39.5,14   C23.8,14,11,26.8,11,42.5S23.8,71,39.5,71S68,58.2,68,42.5S55.2,14,39.5,14z" style=""></path></g><g><path fill="#e0e0e0" d="M39.5,47c-7.9,0-15.4-0.4-21-1.2C10.1,44.7,9,43.3,9,42s1.1-2.7,9.5-3.8c5.6-0.8,13.1-1.2,21-1.2   s15.4,0.4,21,1.2c8.4,1.1,9.5,2.6,9.5,3.8s-1.1,2.7-9.5,3.8C54.9,46.6,47.4,47,39.5,47z M11.2,42c1.8,1.3,12.2,3,28.3,3   s26.6-1.7,28.3-3c-1.8-1.3-12.2-3-28.3-3S12.9,40.7,11.2,42z" style=""></path></g><g><path fill="#e0e0e0" d="M39.5,73C29.9,73,22,59.3,22,42.5S29.9,12,39.5,12S57,25.7,57,42.5S49.1,73,39.5,73z M39.5,14   C31,14,24,26.8,24,42.5S31,71,39.5,71S55,58.2,55,42.5S48,14,39.5,14z" style=""></path></g><desc>Created with Snap</desc><defs></defs></g><g><g transform="matrix(1.024,0,0,-1.024,0,0)"><path d="M208 287L208 159Q208 118 210 94Q212 70 220 57Q229 45 245 41Q261 37 290 35L290 0L24 0L24 35Q53 37 70 41Q87 45 96 57Q105 69 107 91Q110 114 110 152L110 571Q110 630 108 665Q107 700 103 718Q101 730 96 737Q92 745 83 749Q74 754 59 756Q44 758 22 758L22 792L206 830L206 449L210 449Q225 469 247 485Q270 502 296 514Q322 526 350 533Q379 540 406 540Q452 540 490 524Q529 508 550 481Q567 458 575 420Q583 383 583 319L583 159Q583 118 585 94Q587 71 595 58Q604 45 620 41Q636 37 665 35L665 0L400 0L400 35Q428 36 445 40Q462 45 470 57Q479 69 481 91Q484 114 484 152L484 278Q484 390 458 437Q432 485 371 485Q324 485 285 461Q247 437 225 395Q220 384 216 374Q213 365 211 353Q209 341 208 325Q208 310 208 287ZM1187 328L969 -157Q923 -260 826 -260Q763 -260 763 -213Q763 -188 780 -177Q798 -165 845 -157Q866 -154 881 -149Q896 -143 908 -135Q920 -126 929 -113Q939 -100 948 -81L983 -11L791 406Q778 434 768 450Q759 467 748 476Q738 486 725 489Q712 493 692 495L692 530L957 530L957 495Q890 495 890 462Q890 449 898 421Q906 393 918 364L1028 98L1033 98L1124 323Q1137 356 1145 377Q1154 398 1158 411Q1163 425 1164 434Q1166 443 1166 451Q1166 477 1151 486Q1137 495 1096 495L1096 530L1316 530L1316 495Q1297 495 1284 490Q1271 485 1257 467Q1244 450 1227 417Q1211 384 1187 328ZM1537 536L1537 458L1541 458Q1573 496 1610 518Q1647 540 1696 540Q1753 540 1800 519Q1848 499 1883 462Q1918 425 1937 374Q1957 324 1957 264Q1957 203 1937 152Q1917 102 1882 66Q1847 30 1799 10Q1751 -10 1695 -10Q1649 -10 1611 5Q1574 21 1541 56L1541 -90Q1541 -130 1545 -154Q1549 -178 1561 -191Q1573 -204 1595 -209Q1618 -214 1655 -215L1655 -250L1347 -250L1347 -215Q1377 -214 1395 -209Q1414 -204 1424 -191Q1435 -178 1439 -156Q1443 -133 1443 -97L1443 277Q1443 335 1441 372Q1440 409 1436 423Q1431 447 1413 455Q1395 464 1345 464L1345 498L1537 536ZM1567 429Q1554 409 1547 381Q1541 354 1541 310L1541 232Q1541 205 1542 185Q1544 166 1547 152Q1550 138 1555 127Q1560 116 1568 106Q1591 74 1623 56Q1655 39 1690 39Q1759 39 1801 97Q1844 155 1844 260Q1844 312 1832 354Q1821 397 1800 427Q1779 458 1749 475Q1720 492 1684 492Q1648 492 1617 475Q1587 459 1567 429ZM2497 121L2528 93Q2443 -10 2317 -10Q2258 -10 2210 9Q2162 29 2127 64Q2093 100 2074 149Q2055 199 2055 259Q2055 320 2075 372Q2095 424 2131 461Q2168 498 2218 519Q2269 540 2329 540Q2426 540 2479 487Q2532 435 2532 337Q2532 323 2526 320Q2521 317 2501 317L2172 317Q2170 309 2169 297Q2168 286 2168 272Q2168 220 2180 177Q2193 135 2216 105Q2240 75 2272 58Q2305 42 2345 42Q2387 42 2423 60Q2459 79 2497 121ZM2179 363L2363 363Q2383 363 2395 364Q2407 365 2413 368Q2419 371 2421 376Q2423 382 2423 391Q2423 437 2393 464Q2364 492 2313 492Q2205 492 2179 363ZM2801 193L2801 159Q2801 118 2803 94Q2805 70 2813 57Q2822 45 2838 41Q2854 37 2883 35L2883 0L2617 0L2617 35Q2646 36 2663 40Q2680 45 2689 57Q2698 69 2700 91Q2703 114 2703 152L2703 269Q2703 337 2701 375Q2700 413 2691 431Q2683 449 2665 452Q2647 456 2615 456L2615 491L2790 529L2804 405L2808 405Q2821 435 2840 460Q2860 485 2883 502Q2906 520 2931 530Q2956 540 2982 540Q3014 540 3032 524Q3051 509 3051 483Q3051 459 3036 445Q3021 432 2993 432Q2977 432 2966 436Q2955 440 2946 444Q2938 449 2930 453Q2923 457 2914 457Q2887 457 2860 422Q2833 388 2818 335Q2810 306 2805 269Q2801 233 2801 193ZM3266 536L3266 458L3270 458Q3302 496 3339 518Q3376 540 3425 540Q3482 540 3529 519Q3577 499 3612 462Q3647 425 3666 374Q3686 324 3686 264Q3686 203 3666 152Q3646 102 3611 66Q3576 30 3528 10Q3480 -10 3424 -10Q3378 -10 3340 5Q3303 21 3270 56L3270 -90Q3270 -130 3274 -154Q3278 -178 3290 -191Q3302 -204 3324 -209Q3347 -214 3384 -215L3384 -250L3076 -250L3076 -215Q3106 -214 3124 -209Q3143 -204 3153 -191Q3164 -178 3168 -156Q3172 -133 3172 -97L3172 277Q3172 335 3170 372Q3169 409 3165 423Q3160 447 3142 455Q3124 464 3074 464L3074 498L3266 536ZM3296 429Q3283 409 3276 381Q3270 354 3270 310L3270 232Q3270 205 3271 185Q3273 166 3276 152Q3279 138 3284 127Q3289 116 3297 106Q3320 74 3352 56Q3384 39 3419 39Q3488 39 3530 97Q3573 155 3573 260Q3573 312 3561 354Q3550 397 3529 427Q3508 458 3478 475Q3449 492 3413 492Q3377 492 3346 475Q3316 459 3296 429ZM4234 328L4016 -157Q3970 -260 3873 -260Q3810 -260 3810 -213Q3810 -188 3827 -177Q3845 -165 3892 -157Q3913 -154 3928 -149Q3943 -143 3955 -135Q3967 -126 3976 -113Q3986 -100 3995 -81L4030 -11L3838 406Q3825 434 3815 450Q3806 467 3795 476Q3785 486 3772 489Q3759 493 3739 495L3739 530L4004 530L4004 495Q3937 495 3937 462Q3937 449 3945 421Q3953 393 3965 364L4075 98L4080 98L4171 323Q4184 356 4192 377Q4201 398 4205 411Q4210 425 4211 434Q4213 443 4213 451Q4213 477 4198 486Q4184 495 4143 495L4143 530L4363 530L4363 495Q4344 495 4331 490Q4318 485 4304 467Q4291 450 4274 417Q4258 384 4234 328Z" fill="#ffffff" style=""></path></g></g><g transform="matrix(0.75,0,0,0.75,-18170.2874,1140.065)"><g transform="matrix(0.5,0,0,-0.5,0,0)"><path d="M1220 808L1220 1421L1390 1421L1390 0L1220 0L1220 658L460 658L460 0L290 0L290 1421L460 1421L460 808L1220 808ZM2063 -49L1650 988L1830 988L2146 150L2440 988L2610 988L2040 -531L1865 -531L2063 -49ZM3272 1007Q3333 1007 3391 992Q3449 978 3507 941Q3566 905 3609 849Q3653 794 3680 705Q3708 616 3708 505Q3708 262 3578 121Q3449 -20 3243 -20Q3125 -20 3004 33L3004 -531L2840 -531L2840 988L2954 988L2981 925Q3121 1007 3272 1007ZM3216 871Q3107 871 3004 816L3004 157Q3111 109 3219 109Q3265 109 3308 119Q3351 129 3395 155Q3440 182 3473 222Q3506 262 3527 328Q3548 394 3548 477Q3548 571 3526 643Q3504 715 3470 757Q3436 799 3390 826Q3344 853 3302 862Q3260 871 3216 871ZM4442 1007Q4514 1007 4571 989Q4629 972 4667 945Q4705 918 4732 874Q4760 831 4774 790Q4789 750 4797 693Q4805 636 4807 594Q4809 552 4809 495L4809 417L4130 417Q4130 363 4154 309Q4179 256 4223 211Q4268 167 4340 139Q4413 111 4501 111Q4605 111 4726 147L4755 35Q4594 -20 4439 -20Q4330 -20 4245 9Q4161 38 4109 84Q4058 131 4025 196Q3992 261 3979 325Q3967 390 3967 462Q3967 573 3994 665Q4021 757 4067 819Q4113 882 4174 925Q4236 968 4303 987Q4371 1007 4442 1007ZM4407 865Q4319 865 4255 816Q4192 768 4163 696Q4134 624 4134 541L4650 541Q4650 865 4407 865ZM5234 988L5265 914Q5390 1007 5541 1007Q5645 1007 5730 968L5680 837Q5602 867 5518 867Q5393 867 5283 798L5283 0L5119 0L5119 988L5234 988ZM6030 0L6030 1421L6499 1421Q6532 1421 6553 1420Q6575 1420 6616 1416Q6657 1413 6686 1406Q6715 1400 6754 1386Q6794 1373 6822 1355Q6850 1337 6880 1307Q6911 1278 6929 1242Q6948 1206 6960 1155Q6972 1104 6972 1043Q6972 955 6952 885Q6932 815 6900 768Q6869 721 6819 687Q6769 653 6720 634Q6671 616 6604 605Q6538 595 6485 592Q6433 589 6364 589Q6296 589 6200 596L6200 0L6030 0ZM6200 1271L6200 746Q6296 738 6382 738Q6431 738 6464 739Q6497 740 6545 746Q6593 752 6625 762Q6657 773 6693 794Q6729 815 6750 843Q6772 872 6786 915Q6800 959 6800 1015Q6800 1073 6785 1117Q6770 1162 6741 1189Q6713 1216 6681 1233Q6650 1251 6605 1258Q6561 1266 6527 1268Q6494 1271 6448 1271L6200 1271ZM7542 -49L7129 988L7309 988L7625 150L7919 988L8089 988L7519 -531L7344 -531L7542 -49ZM8319 0L8319 210L8529 210L8529 0L8319 0ZM8319 783L8319 993L8529 993L8529 783L8319 783ZM9399 0L9904 1421L10097 1421L10602 0L10430 0L10286 413L9700 413L9556 0L9399 0ZM10234 562L9993 1255L9751 562L10234 562ZM10832 0L10832 988L10947 988L10983 904Q11174 1008 11331 1008Q11412 1008 11472 982Q11532 957 11565 918Q11598 880 11617 821Q11637 763 11642 710Q11648 657 11648 589L11648 0L11484 0L11484 600Q11484 860 11260 860Q11144 860 10996 783L10996 0L10832 0ZM12895 1007Q13005 1007 13081 981Q13158 956 13199 907Q13241 858 13259 798Q13277 738 13277 660L13277 0L13161 0L13123 90Q13002 -20 12845 -20Q12705 -20 12608 64Q12511 149 12511 262Q12511 322 12533 370Q12555 418 12596 450Q12638 482 12691 504Q12744 527 12814 539Q12885 551 12956 556Q13027 561 13112 561L13112 639Q13112 673 13109 698Q13107 723 13093 758Q13079 793 13055 815Q13031 838 12983 854Q12935 871 12869 871Q12767 871 12605 826L12574 946Q12738 1007 12895 1007ZM13112 210L13112 437L13051 437Q12994 437 12952 435Q12910 433 12853 423Q12797 414 12761 397Q12725 380 12699 347Q12674 315 12674 270Q12674 207 12737 158Q12801 109 12889 109Q13018 109 13112 210ZM14290 204L14290 988L14454 988L14454 0L14339 0L14304 83Q14115 -20 13955 -20Q13874 -20 13814 5Q13754 31 13721 69Q13688 107 13668 165Q13648 224 13642 277Q13637 330 13637 398L13637 988L13801 988L13801 386Q13801 127 14026 127Q14142 127 14290 204ZM15316 129L15339 17Q15194 -20 15113 -20Q15032 -20 14976 6Q14920 32 14891 80Q14862 128 14849 183Q14837 239 14837 311L14837 859L14704 859L14704 988L14837 988L14837 1271L15001 1271L15001 988L15302 988L15302 859L15001 859L15001 313Q15001 108 15163 108Q15192 108 15316 129ZM16020 1007Q16225 1007 16357 876Q16490 745 16490 514Q16490 269 16354 124Q16219 -20 16004 -20Q15799 -20 15669 115Q15539 251 15539 483Q15539 722 15671 864Q15804 1007 16020 1007ZM16006 867Q15883 867 15791 772Q15699 677 15699 511Q15699 346 15789 233Q15879 120 16022 120Q16154 120 16242 220Q16330 320 16330 481Q16330 573 16301 648Q16273 723 16226 770Q16180 817 16123 842Q16066 867 16006 867ZM17195 856Q17109 856 16964 780L16964 0L16800 0L16800 988L16915 988L16950 906Q17129 1007 17260 1007Q17411 1007 17497 897Q17693 1006 17848 1006Q17923 1006 17980 985Q18037 965 18072 929Q18108 894 18130 840Q18153 787 18161 727Q18170 668 18170 593L18170 0L18006 0L18006 604Q18006 622 18005 637Q18004 653 18000 680Q17996 708 17988 729Q17980 751 17964 776Q17949 801 17927 817Q17905 834 17871 845Q17837 856 17795 856Q17703 856 17552 778Q17566 719 17566 586L17566 0L17402 0L17402 608Q17402 634 17400 657Q17398 681 17386 720Q17374 759 17354 786Q17334 814 17292 835Q17251 856 17195 856ZM18861 1007Q18971 1007 19047 981Q19124 956 19165 907Q19207 858 19225 798Q19243 738 19243 660L19243 0L19127 0L19089 90Q18968 -20 18811 -20Q18671 -20 18574 64Q18477 149 18477 262Q18477 322 18499 370Q18521 418 18562 450Q18604 482 18657 504Q18710 527 18780 539Q18851 551 18922 556Q18993 561 19078 561L19078 639Q19078 673 19075 698Q19073 723 19059 758Q19045 793 19021 815Q18997 838 18949 854Q18901 871 18835 871Q18733 871 18571 826L18540 946Q18704 1007 18861 1007ZM19078 210L19078 437L19017 437Q18960 437 18918 435Q18876 433 18819 423Q18763 414 18727 397Q18691 380 18665 347Q18640 315 18640 270Q18640 207 18703 158Q18767 109 18855 109Q18984 109 19078 210ZM20105 129L20128 17Q19983 -20 19902 -20Q19821 -20 19765 6Q19709 32 19680 80Q19651 128 19638 183Q19626 239 19626 311L19626 859L19493 859L19493 988L19626 988L19626 1271L19790 1271L19790 988L20091 988L20091 859L19790 859L19790 313Q19790 108 19952 108Q19981 108 20105 129ZM20363 1232L20363 1421L20557 1421L20557 1232L20363 1232ZM20378 0L20378 988L20542 988L20542 0L20378 0ZM20852 471Q20852 588 20880 681Q20908 775 20954 834Q21001 894 21064 933Q21127 973 21193 989Q21259 1006 21331 1006Q21473 1006 21608 947L21568 827Q21457 865 21351 865Q21299 865 21253 855Q21207 846 21161 821Q21116 796 21083 756Q21051 717 21031 653Q21011 589 21011 506Q21011 415 21032 345Q21053 276 21087 233Q21121 190 21168 163Q21216 136 21264 125Q21313 115 21369 115Q21463 115 21557 148L21597 35Q21455 -20 21312 -20Q21246 -20 21185 -7Q21125 6 21062 40Q21000 75 20954 128Q20909 181 20880 269Q20852 358 20852 471ZM22901 860Q22784 860 22637 783L22637 0L22473 0L22473 1511L22637 1511L22637 913Q22812 1006 22965 1006Q23031 1006 23083 989Q23136 972 23170 946Q23204 921 23228 880Q23253 840 23265 804Q23278 769 23284 720Q23291 671 23292 640Q23294 609 23294 567L23294 0L23126 0L23126 597Q23126 860 22901 860ZM23937 -49L23524 988L23704 988L24020 150L24314 988L24484 988L23914 -531L23739 -531L23937 -49ZM25146 1007Q25207 1007 25265 992Q25323 978 25381 941Q25440 905 25483 849Q25527 794 25554 705Q25582 616 25582 505Q25582 262 25452 121Q25323 -20 25117 -20Q24999 -20 24878 33L24878 -531L24714 -531L24714 988L24828 988L24855 925Q24995 1007 25146 1007ZM25090 871Q24981 871 24878 816L24878 157Q24985 109 25093 109Q25139 109 25182 119Q25225 129 25269 155Q25314 182 25347 222Q25380 262 25401 328Q25422 394 25422 477Q25422 571 25400 643Q25378 715 25344 757Q25310 799 25264 826Q25218 853 25176 862Q25134 871 25090 871ZM26316 1007Q26388 1007 26445 989Q26503 972 26541 945Q26579 918 26606 874Q26634 831 26648 790Q26663 750 26671 693Q26679 636 26681 594Q26683 552 26683 495L26683 417L26004 417Q26004 363 26028 309Q26053 256 26097 211Q26142 167 26214 139Q26287 111 26375 111Q26479 111 26600 147L26629 35Q26468 -20 26313 -20Q26204 -20 26119 9Q26035 38 25983 84Q25932 131 25899 196Q25866 261 25853 325Q25841 390 25841 462Q25841 573 25868 665Q25895 757 25941 819Q25987 882 26048 925Q26110 968 26177 987Q26245 1007 26316 1007ZM26281 865Q26193 865 26129 816Q26066 768 26037 696Q26008 624 26008 541L26524 541Q26524 865 26281 865ZM27108 988L27139 914Q27264 1007 27415 1007Q27519 1007 27604 968L27554 837Q27476 867 27392 867Q27267 867 27157 798L27157 0L26993 0L26993 988L27108 988ZM28226 1007Q28287 1007 28345 992Q28403 978 28461 941Q28520 905 28563 849Q28607 794 28634 705Q28662 616 28662 505Q28662 262 28532 121Q28403 -20 28197 -20Q28079 -20 27958 33L27958 -531L27794 -531L27794 988L27908 988L27935 925Q28075 1007 28226 1007ZM28170 871Q28061 871 27958 816L27958 157Q28065 109 28173 109Q28219 109 28262 119Q28305 129 28349 155Q28394 182 28427 222Q28460 262 28481 328Q28502 394 28502 477Q28502 571 28480 643Q28458 715 28424 757Q28390 799 28344 826Q28298 853 28256 862Q28214 871 28170 871ZM29298 1007Q29408 1007 29484 981Q29561 956 29602 907Q29644 858 29662 798Q29680 738 29680 660L29680 0L29564 0L29526 90Q29405 -20 29248 -20Q29108 -20 29011 64Q28914 149 28914 262Q28914 322 28936 370Q28958 418 28999 450Q29041 482 29094 504Q29147 527 29217 539Q29288 551 29359 556Q29430 561 29515 561L29515 639Q29515 673 29512 698Q29510 723 29496 758Q29482 793 29458 815Q29434 838 29386 854Q29338 871 29272 871Q29170 871 29008 826L28977 946Q29141 1007 29298 1007ZM29515 210L29515 437L29454 437Q29397 437 29355 435Q29313 433 29256 423Q29200 414 29164 397Q29128 380 29102 347Q29077 315 29077 270Q29077 207 29140 158Q29204 109 29292 109Q29421 109 29515 210ZM30155 988L30186 914Q30311 1007 30462 1007Q30566 1007 30651 968L30601 837Q30523 867 30439 867Q30314 867 30204 798L30204 0L30040 0L30040 988L30155 988ZM31168 1007Q31278 1007 31354 981Q31431 956 31472 907Q31514 858 31532 798Q31550 738 31550 660L31550 0L31434 0L31396 90Q31275 -20 31118 -20Q30978 -20 30881 64Q30784 149 30784 262Q30784 322 30806 370Q30828 418 30869 450Q30911 482 30964 504Q31017 527 31087 539Q31158 551 31229 556Q31300 561 31385 561L31385 639Q31385 673 31382 698Q31380 723 31366 758Q31352 793 31328 815Q31304 838 31256 854Q31208 871 31142 871Q31040 871 30878 826L30847 946Q31011 1007 31168 1007ZM31385 210L31385 437L31324 437Q31267 437 31225 435Q31183 433 31126 423Q31070 414 31034 397Q30998 380 30972 347Q30947 315 30947 270Q30947 207 31010 158Q31074 109 31162 109Q31291 109 31385 210ZM32305 856Q32219 856 32074 780L32074 0L31910 0L31910 988L32025 988L32060 906Q32239 1007 32370 1007Q32521 1007 32607 897Q32803 1006 32958 1006Q33033 1006 33090 985Q33147 965 33182 929Q33218 894 33240 840Q33263 787 33271 727Q33280 668 33280 593L33280 0L33116 0L33116 604Q33116 622 33115 637Q33114 653 33110 680Q33106 708 33098 729Q33090 751 33074 776Q33059 801 33037 817Q33015 834 32981 845Q32947 856 32905 856Q32813 856 32662 778Q32676 719 32676 586L32676 0L32512 0L32512 608Q32512 634 32510 657Q32508 681 32496 720Q32484 759 32464 786Q32444 814 32402 835Q32361 856 32305 856ZM34069 1007Q34141 1007 34198 989Q34256 972 34294 945Q34332 918 34359 874Q34387 831 34401 790Q34416 750 34424 693Q34432 636 34434 594Q34436 552 34436 495L34436 417L33757 417Q33757 363 33781 309Q33806 256 33850 211Q33895 167 33967 139Q34040 111 34128 111Q34232 111 34353 147L34382 35Q34221 -20 34066 -20Q33957 -20 33872 9Q33788 38 33736 84Q33685 131 33652 196Q33619 261 33606 325Q33594 390 33594 462Q33594 573 33621 665Q33648 757 33694 819Q33740 882 33801 925Q33863 968 33930 987Q33998 1007 34069 1007ZM34034 865Q33946 865 33882 816Q33819 768 33790 696Q33761 624 33761 541L34277 541Q34277 865 34034 865ZM35248 129L35271 17Q35126 -20 35045 -20Q34964 -20 34908 6Q34852 32 34823 80Q34794 128 34781 183Q34769 239 34769 311L34769 859L34636 859L34636 988L34769 988L34769 1271L34933 1271L34933 988L35234 988L35234 859L34933 859L34933 313Q34933 108 35095 108Q35124 108 35248 129ZM35946 1007Q36018 1007 36075 989Q36133 972 36171 945Q36209 918 36236 874Q36264 831 36278 790Q36293 750 36301 693Q36309 636 36311 594Q36313 552 36313 495L36313 417L35634 417Q35634 363 35658 309Q35683 256 35727 211Q35772 167 35844 139Q35917 111 36005 111Q36109 111 36230 147L36259 35Q36098 -20 35943 -20Q35834 -20 35749 9Q35665 38 35613 84Q35562 131 35529 196Q35496 261 35483 325Q35471 390 35471 462Q35471 573 35498 665Q35525 757 35571 819Q35617 882 35678 925Q35740 968 35807 987Q35875 1007 35946 1007ZM35911 865Q35823 865 35759 816Q35696 768 35667 696Q35638 624 35638 541L36154 541Q36154 865 35911 865ZM36738 988L36769 914Q36894 1007 37045 1007Q37149 1007 37234 968L37184 837Q37106 867 37022 867Q36897 867 36787 798L36787 0L36623 0L36623 988L36738 988ZM38415 1007Q38620 1007 38752 876Q38885 745 38885 514Q38885 269 38749 124Q38614 -20 38399 -20Q38194 -20 38064 115Q37934 251 37934 483Q37934 722 38066 864Q38199 1007 38415 1007ZM38401 867Q38278 867 38186 772Q38094 677 38094 511Q38094 346 38184 233Q38274 120 38417 120Q38549 120 38637 220Q38725 320 38725 481Q38725 573 38696 648Q38668 723 38621 770Q38575 817 38518 842Q38461 867 38401 867ZM39627 1007Q39688 1007 39746 992Q39804 978 39862 941Q39921 905 39964 849Q40008 794 40035 705Q40063 616 40063 505Q40063 262 39933 121Q39804 -20 39598 -20Q39480 -20 39359 33L39359 -531L39195 -531L39195 988L39309 988L39336 925Q39476 1007 39627 1007ZM39571 871Q39462 871 39359 816L39359 157Q39466 109 39574 109Q39620 109 39663 119Q39706 129 39750 155Q39795 182 39828 222Q39861 262 39882 328Q39903 394 39903 477Q39903 571 39881 643Q39859 715 39825 757Q39791 799 39745 826Q39699 853 39657 862Q39615 871 39571 871ZM40874 129L40897 17Q40752 -20 40671 -20Q40590 -20 40534 6Q40478 32 40449 80Q40420 128 40407 183Q40395 239 40395 311L40395 859L40262 859L40262 988L40395 988L40395 1271L40559 1271L40559 988L40860 988L40860 859L40559 859L40559 313Q40559 108 40721 108Q40750 108 40874 129ZM41132 1232L41132 1421L41326 1421L41326 1232L41132 1232ZM41147 0L41147 988L41311 988L41311 0L41147 0ZM42066 856Q41980 856 41835 780L41835 0L41671 0L41671 988L41786 988L41821 906Q42000 1007 42131 1007Q42282 1007 42368 897Q42564 1006 42719 1006Q42794 1006 42851 985Q42908 965 42943 929Q42979 894 43001 840Q43024 787 43032 727Q43041 668 43041 593L43041 0L42877 0L42877 604Q42877 622 42876 637Q42875 653 42871 680Q42867 708 42859 729Q42851 751 42835 776Q42820 801 42798 817Q42776 834 42742 845Q42708 856 42666 856Q42574 856 42423 778Q42437 719 42437 586L42437 0L42273 0L42273 608Q42273 634 42271 657Q42269 681 42257 720Q42245 759 42225 786Q42205 814 42163 835Q42122 856 42066 856ZM43390 1232L43390 1421L43584 1421L43584 1232L43390 1232ZM43405 0L43405 988L43569 988L43569 0L43405 0ZM43899 859L43899 988L44652 988L44652 901L44112 129L44677 129L44677 0L43899 0L43899 87L44437 859L43899 859ZM45334 1007Q45444 1007 45520 981Q45597 956 45638 907Q45680 858 45698 798Q45716 738 45716 660L45716 0L45600 0L45562 90Q45441 -20 45284 -20Q45144 -20 45047 64Q44950 149 44950 262Q44950 322 44972 370Q44994 418 45035 450Q45077 482 45130 504Q45183 527 45253 539Q45324 551 45395 556Q45466 561 45551 561L45551 639Q45551 673 45548 698Q45546 723 45532 758Q45518 793 45494 815Q45470 838 45422 854Q45374 871 45308 871Q45206 871 45044 826L45013 946Q45177 1007 45334 1007ZM45551 210L45551 437L45490 437Q45433 437 45391 435Q45349 433 45292 423Q45236 414 45200 397Q45164 380 45138 347Q45113 315 45113 270Q45113 207 45176 158Q45240 109 45328 109Q45457 109 45551 210ZM46578 129L46601 17Q46456 -20 46375 -20Q46294 -20 46238 6Q46182 32 46153 80Q46124 128 46111 183Q46099 239 46099 311L46099 859L45966 859L45966 988L46099 988L46099 1271L46263 1271L46263 988L46564 988L46564 859L46263 859L46263 313Q46263 108 46425 108Q46454 108 46578 129ZM46836 1232L46836 1421L47030 1421L47030 1232L46836 1232ZM46851 0L46851 988L47015 988L47015 0L46851 0ZM47806 1007Q48011 1007 48143 876Q48276 745 48276 514Q48276 269 48140 124Q48005 -20 47790 -20Q47585 -20 47455 115Q47325 251 47325 483Q47325 722 47457 864Q47590 1007 47806 1007ZM47792 867Q47669 867 47577 772Q47485 677 47485 511Q47485 346 47575 233Q47665 120 47808 120Q47940 120 48028 220Q48116 320 48116 481Q48116 573 48087 648Q48059 723 48012 770Q47966 817 47909 842Q47852 867 47792 867ZM48586 0L48586 988L48701 988L48737 904Q48928 1008 49085 1008Q49166 1008 49226 982Q49286 957 49319 918Q49352 880 49371 821Q49391 763 49396 710Q49402 657 49402 589L49402 0L49238 0L49238 600Q49238 860 49014 860Q48898 860 48750 783L48750 0L48586 0ZM50804 1292Q50745 1292 50702 1275Q50659 1259 50637 1237Q50616 1216 50603 1185Q50591 1155 50588 1135Q50586 1116 50586 1095L50586 988L50917 988L50917 859L50586 859L50586 0L50420 0L50420 859L50277 859L50277 988L50420 988L50420 1088Q50420 1218 50459 1286Q50498 1355 50574 1392Q50650 1429 50750 1429Q50857 1429 50987 1390L50962 1268Q50869 1292 50804 1292ZM51257 988L51288 914Q51413 1007 51564 1007Q51668 1007 51753 968L51703 837Q51625 867 51541 867Q51416 867 51306 798L51306 0L51142 0L51142 988L51257 988ZM52270 1007Q52380 1007 52456 981Q52533 956 52574 907Q52616 858 52634 798Q52652 738 52652 660L52652 0L52536 0L52498 90Q52377 -20 52220 -20Q52080 -20 51983 64Q51886 149 51886 262Q51886 322 51908 370Q51930 418 51971 450Q52013 482 52066 504Q52119 527 52189 539Q52260 551 52331 556Q52402 561 52487 561L52487 639Q52487 673 52484 698Q52482 723 52468 758Q52454 793 52430 815Q52406 838 52358 854Q52310 871 52244 871Q52142 871 51980 826L51949 946Q52113 1007 52270 1007ZM52487 210L52487 437L52426 437Q52369 437 52327 435Q52285 433 52228 423Q52172 414 52136 397Q52100 380 52074 347Q52049 315 52049 270Q52049 207 52112 158Q52176 109 52264 109Q52393 109 52487 210ZM53407 856Q53321 856 53176 780L53176 0L53012 0L53012 988L53127 988L53162 906Q53341 1007 53472 1007Q53623 1007 53709 897Q53905 1006 54060 1006Q54135 1006 54192 985Q54249 965 54284 929Q54320 894 54342 840Q54365 787 54373 727Q54382 668 54382 593L54382 0L54218 0L54218 604Q54218 622 54217 637Q54216 653 54212 680Q54208 708 54200 729Q54192 751 54176 776Q54161 801 54139 817Q54117 834 54083 845Q54049 856 54007 856Q53915 856 53764 778Q53778 719 53778 586L53778 0L53614 0L53614 608Q53614 634 53612 657Q53610 681 53598 720Q53586 759 53566 786Q53546 814 53504 835Q53463 856 53407 856ZM55171 1007Q55243 1007 55300 989Q55358 972 55396 945Q55434 918 55461 874Q55489 831 55503 790Q55518 750 55526 693Q55534 636 55536 594Q55538 552 55538 495L55538 417L54859 417Q54859 363 54883 309Q54908 256 54952 211Q54997 167 55069 139Q55142 111 55230 111Q55334 111 55455 147L55484 35Q55323 -20 55168 -20Q55059 -20 54974 9Q54890 38 54838 84Q54787 131 54754 196Q54721 261 54708 325Q54696 390 54696 462Q54696 573 54723 665Q54750 757 54796 819Q54842 882 54903 925Q54965 968 55032 987Q55100 1007 55171 1007ZM55136 865Q55048 865 54984 816Q54921 768 54892 696Q54863 624 54863 541L55379 541Q55379 865 55136 865ZM56079 0L55728 988L55903 988L56171 159L56425 988L56586 988L56850 160L57118 988L57293 988L56932 0L56767 0L56504 801L56244 0L56079 0ZM57964 1007Q58169 1007 58301 876Q58434 745 58434 514Q58434 269 58298 124Q58163 -20 57948 -20Q57743 -20 57613 115Q57483 251 57483 483Q57483 722 57615 864Q57748 1007 57964 1007ZM57950 867Q57827 867 57735 772Q57643 677 57643 511Q57643 346 57733 233Q57823 120 57966 120Q58098 120 58186 220Q58274 320 58274 481Q58274 573 58245 648Q58217 723 58170 770Q58124 817 58067 842Q58010 867 57950 867ZM58859 988L58890 914Q59015 1007 59166 1007Q59270 1007 59355 968L59305 837Q59227 867 59143 867Q59018 867 58908 798L58908 0L58744 0L58744 988L58859 988ZM59545 0L59545 1511L59709 1511L59709 0L59545 0ZM59725 546L60161 1008L60342 1008L59912 563L60368 0L60171 0L59725 546Z" fill="#ffffff" style=""></path></g></g></g></svg>