<svg version="1.1" xmlns="http://www.w3.org/2000/svg" viewBox="-19391.825 -1085.2 26016.550000000003 2717.725"><desc>Created with Snap</desc><defs></defs><g><rect x="-19391.825" y="-1085.2" width="26016.550000000003" height="2717.725" fill="#004e89" style=""></rect><g transform="matrix(65.7289,0,0,65.7289,4214.2,-778)"><g display="none"><rect x="-247.328" y="-186.656" display="inline" fill="#ffffff" width="473.333" height="236" style=""></rect></g><g display="none"><g display="inline"><g><path fill="#ffffff" d="M16.204,29.814L2.39,16L16.204,2.185L30.019,16L16.204,29.814z M3.804,16l12.4,12.4l12.4-12.4l-12.4-12.4     L3.804,16z" style=""></path></g><g><g><rect x="13.81" y="0.907" transform="matrix(0.7071 -0.7071 0.7071 0.7071 2.4965 12.2207)" fill="#ffffff" width="4.379" height="4.379" style=""></rect></g><g><rect x="13.81" y="26.713" transform="matrix(0.7071 -0.7071 0.7071 0.7071 -15.7514 19.7793)" fill="#ffffff" width="4.379" height="4.379" style=""></rect></g><g><rect x="0.907" y="13.81" transform="matrix(-0.7071 -0.7071 0.7071 -0.7071 -6.0272 29.5035)" fill="#ffffff" width="4.379" height="4.379" style=""></rect></g><g><rect x="26.713" y="13.81" transform="matrix(-0.7071 -0.7071 0.7071 -0.7071 38.0272 47.7514)" fill="#ffffff" width="4.379" height="4.379" style=""></rect></g></g></g></g><g><g><g><g><rect x="2.242" y="9.049" transform="matrix(0.7071 -0.7071 0.7071 0.7071 -3.9551 9.5486)" width="14.614" height="1" fill="#ffffff" style=""></rect></g><g><rect x="15.349" y="22.156" transform="matrix(0.7071 -0.7071 0.7071 0.7071 -9.3843 22.656)" width="14.614" height="1" fill="#ffffff" style=""></rect></g></g><g><g><rect x="9.049" y="15.349" transform="matrix(0.7071 -0.7071 0.7071 0.7071 -13.223 13.3866)" width="1" height="14.614" fill="#ffffff" style=""></rect></g><g><rect x="22.156" y="2.242" transform="matrix(0.7071 -0.7071 0.7071 0.7071 -0.1164 18.8159)" width="1" height="14.614" fill="#ffffff" style=""></rect></g></g><g><g><path d="M16,1.414l1.683,1.683L16,4.779l-1.683-1.683L16,1.414 M16,0l-3.097,3.097L16,6.194l3.097-3.097L16,0L16,0z" fill="#ffffff" style=""></path></g><g><path d="M16,27.221l1.683,1.683L16,30.586l-1.683-1.683L16,27.221 M16,25.806l-3.097,3.097L16,32l3.097-3.097L16,25.806      L16,25.806z" fill="#ffffff" style=""></path></g><g><path d="M3.097,14.317L4.779,16l-1.683,1.683L1.414,16L3.097,14.317 M3.097,12.903L0,16l3.097,3.097L6.194,16L3.097,12.903      L3.097,12.903z" fill="#ffffff" style=""></path></g><g><path d="M28.903,14.317L30.586,16l-1.683,1.683L27.221,16L28.903,14.317 M28.903,12.903L25.806,16l3.097,3.097L32,16      L28.903,12.903L28.903,12.903z" fill="#ffffff" style=""></path></g></g></g></g><g display="none"><line display="inline" fill="#ffffff" stroke="#ffffff" stroke-miterlimit="10" x1="4.382" y1="14.715" x2="14.715" y2="4.382" style=""></line><line display="inline" fill="#ffffff" stroke="#ffffff" stroke-miterlimit="10" x1="27.823" y1="17.489" x2="17.489" y2="27.823" style=""></line><line display="inline" fill="#ffffff" stroke="#ffffff" stroke-miterlimit="10" x1="14.715" y1="27.823" x2="4.382" y2="17.489" style=""></line><line display="inline" fill="#ffffff" stroke="#ffffff" stroke-miterlimit="10" x1="17.489" y1="4.382" x2="27.823" y2="14.715" style=""></line><g display="inline"><rect x="14.31" y="1.407" transform="matrix(0.7071 -0.7071 0.7071 0.7071 2.4968 12.2209)" fill="#ffffff" width="3.38" height="3.38" style=""></rect><g><path fill="#ffffff" d="M16,1.414l1.683,1.683L16,4.779l-1.683-1.683L16,1.414 M16,0l-3.097,3.097L16,6.194l3.097-3.097L16,0     L16,0z" style=""></path></g></g><g display="inline"><rect x="14.311" y="27.213" transform="matrix(0.7071 -0.7071 0.7071 0.7071 -15.7511 19.7794)" fill="#ffffff" width="3.379" height="3.379" style=""></rect><g><path fill="#ffffff" d="M16,27.221l1.683,1.683L16,30.586l-1.683-1.683L16,27.221 M16,25.806l-3.097,3.097L16,32l3.097-3.097     L16,25.806L16,25.806z" style=""></path></g></g><g display="inline"><rect x="1.407" y="14.31" transform="matrix(0.7071 -0.7071 0.7071 0.7071 -10.4064 6.8761)" fill="#ffffff" width="3.379" height="3.379" style=""></rect><g><path d="M3.097,14.317L4.779,16l-1.683,1.683L1.414,16L3.097,14.317 M3.097,12.903L0,16l3.097,3.097L6.194,16L3.097,12.903     L3.097,12.903z" fill="#ffffff" style=""></path></g></g><g display="inline"><rect x="27.213" y="14.31" transform="matrix(0.7073 -0.707 0.707 0.7073 -2.8497 25.1175)" fill="#ffffff" width="3.38" height="3.38" style=""></rect><g><path d="M28.903,14.317L30.586,16l-1.683,1.683L27.221,16L28.903,14.317 M28.903,12.903L25.806,16l3.097,3.097L32,16     L28.903,12.903L28.903,12.903z" fill="#ffffff" style=""></path></g></g></g><g display="none"><line display="inline" fill="#ffffff" stroke="#ffffff" stroke-miterlimit="10" x1="4.382" y1="14.715" x2="14.715" y2="4.382" style=""></line><line display="inline" fill="#ffffff" stroke="#ffffff" stroke-miterlimit="10" x1="27.823" y1="17.489" x2="17.489" y2="27.823" style=""></line><line display="inline" fill="#ffffff" stroke="#ffffff" stroke-miterlimit="10" x1="14.715" y1="27.823" x2="4.382" y2="17.489" style=""></line><line display="inline" fill="#ffffff" stroke="#ffffff" stroke-miterlimit="10" x1="17.489" y1="4.382" x2="27.823" y2="14.715" style=""></line><rect x="13.81" y="0.907" transform="matrix(0.7071 -0.7071 0.7071 0.7071 2.4965 12.2207)" display="inline" fill="#ffffff" width="4.379" height="4.379" style=""></rect><rect x="13.81" y="26.713" transform="matrix(0.7071 -0.7071 0.7071 0.7071 -15.7514 19.7793)" display="inline" fill="#ffffff" width="4.379" height="4.379" style=""></rect><rect x="0.907" y="13.81" transform="matrix(-0.7071 -0.7071 0.7071 -0.7071 -6.0272 29.5035)" display="inline" fill="#ffffff" width="4.379" height="4.379" style=""></rect><rect x="26.713" y="13.81" transform="matrix(-0.7071 -0.7071 0.7071 -0.7071 38.0272 47.7514)" display="inline" fill="#ffffff" width="4.379" height="4.379" style=""></rect></g><desc>Created with Snap</desc><defs></defs></g><g><g transform="matrix(0.5,0,0,-0.5,0,0)"><path d="M1092 0L926 0L926 709Q926 843 865 909Q804 975 674 975Q501 975 421 881Q342 787 342 573L342 0L176 0L176 1556L342 1556L342 1085Q342 1000 334 944L344 944Q393 1023 483 1068Q574 1114 690 1114Q891 1114 991 1018Q1092 923 1092 715L1092 0ZM1701 -6L1259 1096L1437 1096L1677 471Q1756 257 1775 162L1783 162Q1796 213 1837 336Q1879 460 2109 1096L2287 1096L1816 -152Q1746 -337 1652 -415Q1559 -492 1423 -492Q1347 -492 1273 -475L1273 -342Q1328 -354 1396 -354Q1567 -354 1640 -162L1701 -6ZM2975 -20Q2868 -20 2779 19Q2691 59 2631 141L2619 141Q2631 45 2631 -41L2631 -492L2465 -492L2465 1096L2600 1096L2623 946L2631 946Q2695 1036 2780 1076Q2865 1116 2975 1116Q3193 1116 3311 967Q3430 818 3430 549Q3430 279 3309 129Q3189 -20 2975 -20ZM2951 975Q2783 975 2708 882Q2633 789 2631 586L2631 549Q2631 318 2708 218Q2785 119 2955 119Q3097 119 3177 234Q3258 349 3258 551Q3258 756 3177 865Q3097 975 2951 975ZM4183 -20Q3940 -20 3799 128Q3659 276 3659 539Q3659 804 3789 960Q3920 1116 4140 1116Q4346 1116 4466 980Q4586 845 4586 623L4586 518L3831 518Q3836 325 3928 225Q4021 125 4189 125Q4366 125 4539 199L4539 51Q4451 13 4372 -4Q4294 -20 4183 -20ZM4138 977Q4006 977 3927 891Q3849 805 3835 653L4408 653Q4408 810 4338 893Q4268 977 4138 977ZM5369 1116Q5442 1116 5500 1104L5477 950Q5409 965 5357 965Q5224 965 5129 857Q5035 749 5035 588L5035 0L4869 0L4869 1096L5006 1096L5025 893L5033 893Q5094 1000 5180 1058Q5266 1116 5369 1116ZM6215 -20Q6108 -20 6019 19Q5931 59 5871 141L5859 141Q5871 45 5871 -41L5871 -492L5705 -492L5705 1096L5840 1096L5863 946L5871 946Q5935 1036 6020 1076Q6105 1116 6215 1116Q6433 1116 6551 967Q6670 818 6670 549Q6670 279 6549 129Q6429 -20 6215 -20ZM6191 975Q6023 975 5948 882Q5873 789 5871 586L5871 549Q5871 318 5948 218Q6025 119 6195 119Q6337 119 6417 234Q6498 349 6498 551Q6498 756 6417 865Q6337 975 6191 975ZM7228 -6L6786 1096L6964 1096L7204 471Q7283 257 7302 162L7310 162Q7323 213 7364 336Q7406 460 7636 1096L7814 1096L7343 -152Q7273 -337 7179 -415Q7086 -492 6950 -492Q6874 -492 6800 -475L6800 -342Q6855 -354 6923 -354Q7094 -354 7167 -162L7228 -6Z" fill="#ffffff" style=""></path></g></g><g transform="matrix(0.75,0,0,0.75,-19160,1140.825)"><g transform="matrix(0.5,0,0,-0.5,0,0)"><path d="M1311 1462L1311 0L1141 0L1141 688L371 688L371 0L201 0L201 1462L371 1462L371 840L1141 840L1141 1462L1311 1462ZM1955 -6L1513 1096L1691 1096L1931 471Q2010 257 2029 162L2037 162Q2050 213 2091 336Q2133 460 2363 1096L2541 1096L2070 -152Q2000 -337 1906 -415Q1813 -492 1677 -492Q1601 -492 1527 -475L1527 -342Q1582 -354 1650 -354Q1821 -354 1894 -162L1955 -6ZM3229 -20Q3122 -20 3033 19Q2945 59 2885 141L2873 141Q2885 45 2885 -41L2885 -492L2719 -492L2719 1096L2854 1096L2877 946L2885 946Q2949 1036 3034 1076Q3119 1116 3229 1116Q3447 1116 3565 967Q3684 818 3684 549Q3684 279 3563 129Q3443 -20 3229 -20ZM3205 975Q3037 975 2962 882Q2887 789 2885 586L2885 549Q2885 318 2962 218Q3039 119 3209 119Q3351 119 3431 234Q3512 349 3512 551Q3512 756 3431 865Q3351 975 3205 975ZM4437 -20Q4194 -20 4053 128Q3913 276 3913 539Q3913 804 4043 960Q4174 1116 4394 1116Q4600 1116 4720 980Q4840 845 4840 623L4840 518L4085 518Q4090 325 4182 225Q4275 125 4443 125Q4620 125 4793 199L4793 51Q4705 13 4626 -4Q4548 -20 4437 -20ZM4392 977Q4260 977 4181 891Q4103 805 4089 653L4662 653Q4662 810 4592 893Q4522 977 4392 977ZM5623 1116Q5696 1116 5754 1104L5731 950Q5663 965 5611 965Q5478 965 5383 857Q5289 749 5289 588L5289 0L5123 0L5123 1096L5260 1096L5279 893L5287 893Q5348 1000 5434 1058Q5520 1116 5623 1116ZM6911 1036Q6911 814 6759 694Q6608 575 6326 575L6154 575L6154 0L5984 0L5984 1462L6363 1462Q6911 1462 6911 1036ZM6154 1315L6154 721L6307 721Q6533 721 6634 794Q6735 867 6735 1028Q6735 1173 6640 1244Q6545 1315 6344 1315L6154 1315ZM7460 -6L7018 1096L7196 1096L7436 471Q7515 257 7534 162L7542 162Q7555 213 7596 336Q7638 460 7868 1096L8046 1096L7575 -152Q7505 -337 7411 -415Q7318 -492 7182 -492Q7106 -492 7032 -475L7032 -342Q7087 -354 7155 -354Q7326 -354 7399 -162L7460 -6ZM8200 106Q8200 173 8230 207Q8261 242 8318 242Q8376 242 8408 207Q8441 173 8441 106Q8441 41 8408 6Q8375 -29 8318 -29Q8267 -29 8233 2Q8200 34 8200 106ZM8200 989Q8200 1124 8318 1124Q8441 1124 8441 989Q8441 924 8408 889Q8375 854 8318 854Q8267 854 8233 885Q8200 917 8200 989ZM10421 0L10245 0L10063 465L9477 465L9297 0L9125 0L9703 1468L9846 1468L10421 0ZM9537 618L10010 618L9840 1071Q9807 1157 9772 1282Q9750 1186 9709 1071L9537 618ZM11513 0L11347 0L11347 709Q11347 843 11286 909Q11225 975 11095 975Q10923 975 10843 882Q10763 789 10763 575L10763 0L10597 0L10597 1096L10732 1096L10759 946L10767 946Q10818 1027 10910 1071Q11002 1116 11115 1116Q11313 1116 11413 1020Q11513 925 11513 715L11513 0ZM13183 0L13060 0L13027 156L13019 156Q12937 53 12855 16Q12774 -20 12652 -20Q12489 -20 12396 64Q12304 148 12304 303Q12304 635 12835 651L13021 657L13021 725Q13021 854 12965 915Q12910 977 12788 977Q12651 977 12478 893L12427 1020Q12508 1064 12604 1089Q12701 1114 12798 1114Q12994 1114 13088 1027Q13183 940 13183 748L13183 0ZM12685 117Q12840 117 12928 202Q13017 287 13017 440L13017 539L12851 532Q12653 525 12565 470Q12478 416 12478 301Q12478 211 12532 164Q12587 117 12685 117ZM13513 1096L13681 1096L13681 385Q13681 251 13742 185Q13803 119 13933 119Q14105 119 14184 213Q14264 307 14264 520L14264 1096L14430 1096L14430 0L14293 0L14269 147L14260 147Q14209 66 14118 23Q14028 -20 13912 -20Q13712 -20 13612 75Q13513 170 13513 379L13513 1096ZM15136 117Q15180 117 15221 123Q15262 130 15286 137L15286 10Q15259 -3 15206 -12Q15154 -20 15112 -20Q14794 -20 14794 315L14794 967L14637 967L14637 1047L14794 1116L14864 1350L14960 1350L14960 1096L15278 1096L15278 967L14960 967L14960 322Q14960 223 15007 170Q15054 117 15136 117ZM16451 549Q16451 281 16316 130Q16181 -20 15943 -20Q15796 -20 15682 49Q15568 118 15506 247Q15444 376 15444 549Q15444 817 15578 966Q15712 1116 15950 1116Q16180 1116 16315 963Q16451 810 16451 549ZM15616 549Q15616 339 15700 229Q15784 119 15947 119Q16110 119 16194 228Q16279 338 16279 549Q16279 758 16194 866Q16110 975 15945 975Q15782 975 15699 868Q15616 761 15616 549ZM18305 0L18139 0L18139 713Q18139 844 18083 909Q18027 975 17909 975Q17754 975 17680 886Q17606 797 17606 612L17606 0L17440 0L17440 713Q17440 844 17384 909Q17328 975 17209 975Q17053 975 16980 881Q16908 788 16908 575L16908 0L16742 0L16742 1096L16877 1096L16904 946L16912 946Q16959 1026 17044 1071Q17130 1116 17236 1116Q17493 1116 17572 930L17580 930Q17629 1016 17722 1066Q17815 1116 17934 1116Q18120 1116 18212 1020Q18305 925 18305 715L18305 0ZM19444 0L19321 0L19288 156L19280 156Q19198 53 19116 16Q19035 -20 18913 -20Q18750 -20 18657 64Q18565 148 18565 303Q18565 635 19096 651L19282 657L19282 725Q19282 854 19226 915Q19171 977 19049 977Q18912 977 18739 893L18688 1020Q18769 1064 18865 1089Q18962 1114 19059 1114Q19255 1114 19349 1027Q19444 940 19444 748L19444 0ZM18946 117Q19101 117 19189 202Q19278 287 19278 440L19278 539L19112 532Q18914 525 18826 470Q18739 416 18739 301Q18739 211 18793 164Q18848 117 18946 117ZM20140 117Q20184 117 20225 123Q20266 130 20290 137L20290 10Q20263 -3 20210 -12Q20158 -20 20116 -20Q19798 -20 19798 315L19798 967L19641 967L19641 1047L19798 1116L19868 1350L19964 1350L19964 1096L20282 1096L20282 967L19964 967L19964 322Q19964 223 20011 170Q20058 117 20140 117ZM20675 1096L20675 0L20509 0L20509 1096L20675 1096ZM20495 1393Q20495 1450 20523 1476Q20551 1503 20593 1503Q20633 1503 20662 1476Q20691 1449 20691 1393Q20691 1337 20662 1309Q20633 1282 20593 1282Q20551 1282 20523 1309Q20495 1337 20495 1393ZM21465 -20Q21227 -20 21096 126Q20966 273 20966 541Q20966 816 21098 966Q21231 1116 21476 1116Q21555 1116 21634 1099Q21713 1082 21758 1059L21707 918Q21652 940 21587 954Q21522 969 21472 969Q21138 969 21138 543Q21138 341 21219 233Q21301 125 21461 125Q21598 125 21742 184L21742 37Q21632 -20 21465 -20ZM23450 0L23284 0L23284 709Q23284 843 23223 909Q23162 975 23032 975Q22859 975 22779 881Q22700 787 22700 573L22700 0L22534 0L22534 1556L22700 1556L22700 1085Q22700 1000 22692 944L22702 944Q22751 1023 22841 1068Q22932 1114 23048 1114Q23249 1114 23349 1018Q23450 923 23450 715L23450 0ZM24059 -6L23617 1096L23795 1096L24035 471Q24114 257 24133 162L24141 162Q24154 213 24195 336Q24237 460 24467 1096L24645 1096L24174 -152Q24104 -337 24010 -415Q23917 -492 23781 -492Q23705 -492 23631 -475L23631 -342Q23686 -354 23754 -354Q23925 -354 23998 -162L24059 -6ZM25333 -20Q25226 -20 25137 19Q25049 59 24989 141L24977 141Q24989 45 24989 -41L24989 -492L24823 -492L24823 1096L24958 1096L24981 946L24989 946Q25053 1036 25138 1076Q25223 1116 25333 1116Q25551 1116 25669 967Q25788 818 25788 549Q25788 279 25667 129Q25547 -20 25333 -20ZM25309 975Q25141 975 25066 882Q24991 789 24989 586L24989 549Q24989 318 25066 218Q25143 119 25313 119Q25455 119 25535 234Q25616 349 25616 551Q25616 756 25535 865Q25455 975 25309 975ZM26541 -20Q26298 -20 26157 128Q26017 276 26017 539Q26017 804 26147 960Q26278 1116 26498 1116Q26704 1116 26824 980Q26944 845 26944 623L26944 518L26189 518Q26194 325 26286 225Q26379 125 26547 125Q26724 125 26897 199L26897 51Q26809 13 26730 -4Q26652 -20 26541 -20ZM26496 977Q26364 977 26285 891Q26207 805 26193 653L26766 653Q26766 810 26696 893Q26626 977 26496 977ZM27727 1116Q27800 1116 27858 1104L27835 950Q27767 965 27715 965Q27582 965 27487 857Q27393 749 27393 588L27393 0L27227 0L27227 1096L27364 1096L27383 893L27391 893Q27452 1000 27538 1058Q27624 1116 27727 1116ZM28573 -20Q28466 -20 28377 19Q28289 59 28229 141L28217 141Q28229 45 28229 -41L28229 -492L28063 -492L28063 1096L28198 1096L28221 946L28229 946Q28293 1036 28378 1076Q28463 1116 28573 1116Q28791 1116 28909 967Q29028 818 29028 549Q29028 279 28907 129Q28787 -20 28573 -20ZM28549 975Q28381 975 28306 882Q28231 789 28229 586L28229 549Q28229 318 28306 218Q28383 119 28553 119Q28695 119 28775 234Q28856 349 28856 551Q28856 756 28775 865Q28695 975 28549 975ZM30115 0L29992 0L29959 156L29951 156Q29869 53 29787 16Q29706 -20 29584 -20Q29421 -20 29328 64Q29236 148 29236 303Q29236 635 29767 651L29953 657L29953 725Q29953 854 29897 915Q29842 977 29720 977Q29583 977 29410 893L29359 1020Q29440 1064 29536 1089Q29633 1114 29730 1114Q29926 1114 30020 1027Q30115 940 30115 748L30115 0ZM29617 117Q29772 117 29860 202Q29949 287 29949 440L29949 539L29783 532Q29585 525 29497 470Q29410 416 29410 301Q29410 211 29464 164Q29519 117 29617 117ZM30957 1116Q31030 1116 31088 1104L31065 950Q30997 965 30945 965Q30812 965 30717 857Q30623 749 30623 588L30623 0L30457 0L30457 1096L30594 1096L30613 893L30621 893Q30682 1000 30768 1058Q30854 1116 30957 1116ZM32090 0L31967 0L31934 156L31926 156Q31844 53 31762 16Q31681 -20 31559 -20Q31396 -20 31303 64Q31211 148 31211 303Q31211 635 31742 651L31928 657L31928 725Q31928 854 31872 915Q31817 977 31695 977Q31558 977 31385 893L31334 1020Q31415 1064 31511 1089Q31608 1114 31705 1114Q31901 1114 31995 1027Q32090 940 32090 748L32090 0ZM31592 117Q31747 117 31835 202Q31924 287 31924 440L31924 539L31758 532Q31560 525 31472 470Q31385 416 31385 301Q31385 211 31439 164Q31494 117 31592 117ZM33995 0L33829 0L33829 713Q33829 844 33773 909Q33717 975 33599 975Q33444 975 33370 886Q33296 797 33296 612L33296 0L33130 0L33130 713Q33130 844 33074 909Q33018 975 32899 975Q32743 975 32670 881Q32598 788 32598 575L32598 0L32432 0L32432 1096L32567 1096L32594 946L32602 946Q32649 1026 32734 1071Q32820 1116 32926 1116Q33183 1116 33262 930L33270 930Q33319 1016 33412 1066Q33505 1116 33624 1116Q33810 1116 33902 1020Q33995 925 33995 715L33995 0ZM34800 -20Q34557 -20 34416 128Q34276 276 34276 539Q34276 804 34406 960Q34537 1116 34757 1116Q34963 1116 35083 980Q35203 845 35203 623L35203 518L34448 518Q34453 325 34545 225Q34638 125 34806 125Q34983 125 35156 199L35156 51Q35068 13 34989 -4Q34911 -20 34800 -20ZM34755 977Q34623 977 34544 891Q34466 805 34452 653L35025 653Q35025 810 34955 893Q34885 977 34755 977ZM35840 117Q35884 117 35925 123Q35966 130 35990 137L35990 10Q35963 -3 35910 -12Q35858 -20 35816 -20Q35498 -20 35498 315L35498 967L35341 967L35341 1047L35498 1116L35568 1350L35664 1350L35664 1096L35982 1096L35982 967L35664 967L35664 322Q35664 223 35711 170Q35758 117 35840 117ZM36672 -20Q36429 -20 36288 128Q36148 276 36148 539Q36148 804 36278 960Q36409 1116 36629 1116Q36835 1116 36955 980Q37075 845 37075 623L37075 518L36320 518Q36325 325 36417 225Q36510 125 36678 125Q36855 125 37028 199L37028 51Q36940 13 36861 -4Q36783 -20 36672 -20ZM36627 977Q36495 977 36416 891Q36338 805 36324 653L36897 653Q36897 810 36827 893Q36757 977 36627 977ZM37858 1116Q37931 1116 37989 1104L37966 950Q37898 965 37846 965Q37713 965 37618 857Q37524 749 37524 588L37524 0L37358 0L37358 1096L37495 1096L37514 893L37522 893Q37583 1000 37669 1058Q37755 1116 37858 1116ZM39672 549Q39672 281 39537 130Q39402 -20 39164 -20Q39017 -20 38903 49Q38789 118 38727 247Q38665 376 38665 549Q38665 817 38799 966Q38933 1116 39171 1116Q39401 1116 39536 963Q39672 810 39672 549ZM38837 549Q38837 339 38921 229Q39005 119 39168 119Q39331 119 39415 228Q39500 338 39500 549Q39500 758 39415 866Q39331 975 39166 975Q39003 975 38920 868Q38837 761 38837 549ZM40473 -20Q40366 -20 40277 19Q40189 59 40129 141L40117 141Q40129 45 40129 -41L40129 -492L39963 -492L39963 1096L40098 1096L40121 946L40129 946Q40193 1036 40278 1076Q40363 1116 40473 1116Q40691 1116 40809 967Q40928 818 40928 549Q40928 279 40807 129Q40687 -20 40473 -20ZM40449 975Q40281 975 40206 882Q40131 789 40129 586L40129 549Q40129 318 40206 218Q40283 119 40453 119Q40595 119 40675 234Q40756 349 40756 551Q40756 756 40675 865Q40595 975 40449 975ZM41572 117Q41616 117 41657 123Q41698 130 41722 137L41722 10Q41695 -3 41642 -12Q41590 -20 41548 -20Q41230 -20 41230 315L41230 967L41073 967L41073 1047L41230 1116L41300 1350L41396 1350L41396 1096L41714 1096L41714 967L41396 967L41396 322Q41396 223 41443 170Q41490 117 41572 117ZM42107 1096L42107 0L41941 0L41941 1096L42107 1096ZM41927 1393Q41927 1450 41955 1476Q41983 1503 42025 1503Q42065 1503 42094 1476Q42123 1449 42123 1393Q42123 1337 42094 1309Q42065 1282 42025 1282Q41983 1282 41955 1309Q41927 1337 41927 1393ZM44022 0L43856 0L43856 713Q43856 844 43800 909Q43744 975 43626 975Q43471 975 43397 886Q43323 797 43323 612L43323 0L43157 0L43157 713Q43157 844 43101 909Q43045 975 42926 975Q42770 975 42697 881Q42625 788 42625 575L42625 0L42459 0L42459 1096L42594 1096L42621 946L42629 946Q42676 1026 42761 1071Q42847 1116 42953 1116Q43210 1116 43289 930L43297 930Q43346 1016 43439 1066Q43532 1116 43651 1116Q43837 1116 43929 1020Q44022 925 44022 715L44022 0ZM44530 1096L44530 0L44364 0L44364 1096L44530 1096ZM44350 1393Q44350 1450 44378 1476Q44406 1503 44448 1503Q44488 1503 44517 1476Q44546 1449 44546 1393Q44546 1337 44517 1309Q44488 1282 44448 1282Q44406 1282 44378 1309Q44350 1337 44350 1393ZM45583 129L45583 0L44788 0L44788 113L45386 967L44825 967L44825 1096L45568 1096L45568 967L44978 129L45583 129ZM46637 0L46514 0L46481 156L46473 156Q46391 53 46309 16Q46228 -20 46106 -20Q45943 -20 45850 64Q45758 148 45758 303Q45758 635 46289 651L46475 657L46475 725Q46475 854 46419 915Q46364 977 46242 977Q46105 977 45932 893L45881 1020Q45962 1064 46058 1089Q46155 1114 46252 1114Q46448 1114 46542 1027Q46637 940 46637 748L46637 0ZM46139 117Q46294 117 46382 202Q46471 287 46471 440L46471 539L46305 532Q46107 525 46019 470Q45932 416 45932 301Q45932 211 45986 164Q46041 117 46139 117ZM47333 117Q47377 117 47418 123Q47459 130 47483 137L47483 10Q47456 -3 47403 -12Q47351 -20 47309 -20Q46991 -20 46991 315L46991 967L46834 967L46834 1047L46991 1116L47061 1350L47157 1350L47157 1096L47475 1096L47475 967L47157 967L47157 322Q47157 223 47204 170Q47251 117 47333 117ZM47868 1096L47868 0L47702 0L47702 1096L47868 1096ZM47688 1393Q47688 1450 47716 1476Q47744 1503 47786 1503Q47826 1503 47855 1476Q47884 1449 47884 1393Q47884 1337 47855 1309Q47826 1282 47786 1282Q47744 1282 47716 1309Q47688 1337 47688 1393ZM49166 549Q49166 281 49031 130Q48896 -20 48658 -20Q48511 -20 48397 49Q48283 118 48221 247Q48159 376 48159 549Q48159 817 48293 966Q48427 1116 48665 1116Q48895 1116 49030 963Q49166 810 49166 549ZM48331 549Q48331 339 48415 229Q48499 119 48662 119Q48825 119 48909 228Q48994 338 48994 549Q48994 758 48909 866Q48825 975 48660 975Q48497 975 48414 868Q48331 761 48331 549ZM50373 0L50207 0L50207 709Q50207 843 50146 909Q50085 975 49955 975Q49783 975 49703 882Q49623 789 49623 575L49623 0L49457 0L49457 1096L49592 1096L49619 946L49627 946Q49678 1027 49770 1071Q49862 1116 49975 1116Q50173 1116 50273 1020Q50373 925 50373 715L50373 0ZM51740 1096L51740 967L51461 967L51461 0L51295 0L51295 967L51099 967L51099 1042L51295 1102L51295 1163Q51295 1567 51648 1567Q51735 1567 51852 1532L51809 1399Q51713 1430 51645 1430Q51551 1430 51506 1367Q51461 1305 51461 1167L51461 1096L51740 1096ZM52440 1116Q52513 1116 52571 1104L52548 950Q52480 965 52428 965Q52295 965 52200 857Q52106 749 52106 588L52106 0L51940 0L51940 1096L52077 1096L52096 893L52104 893Q52165 1000 52251 1058Q52337 1116 52440 1116ZM53573 0L53450 0L53417 156L53409 156Q53327 53 53245 16Q53164 -20 53042 -20Q52879 -20 52786 64Q52694 148 52694 303Q52694 635 53225 651L53411 657L53411 725Q53411 854 53355 915Q53300 977 53178 977Q53041 977 52868 893L52817 1020Q52898 1064 52994 1089Q53091 1114 53188 1114Q53384 1114 53478 1027Q53573 940 53573 748L53573 0ZM53075 117Q53230 117 53318 202Q53407 287 53407 440L53407 539L53241 532Q53043 525 52955 470Q52868 416 52868 301Q52868 211 52922 164Q52977 117 53075 117ZM55478 0L55312 0L55312 713Q55312 844 55256 909Q55200 975 55082 975Q54927 975 54853 886Q54779 797 54779 612L54779 0L54613 0L54613 713Q54613 844 54557 909Q54501 975 54382 975Q54226 975 54153 881Q54081 788 54081 575L54081 0L53915 0L53915 1096L54050 1096L54077 946L54085 946Q54132 1026 54217 1071Q54303 1116 54409 1116Q54666 1116 54745 930L54753 930Q54802 1016 54895 1066Q54988 1116 55107 1116Q55293 1116 55385 1020Q55478 925 55478 715L55478 0ZM56283 -20Q56040 -20 55899 128Q55759 276 55759 539Q55759 804 55889 960Q56020 1116 56240 1116Q56446 1116 56566 980Q56686 845 56686 623L56686 518L55931 518Q55936 325 56028 225Q56121 125 56289 125Q56466 125 56639 199L56639 51Q56551 13 56472 -4Q56394 -20 56283 -20ZM56238 977Q56106 977 56027 891Q55949 805 55935 653L56508 653Q56508 810 56438 893Q56368 977 56238 977ZM58061 0L57864 0L57663 643Q57644 702 57592 911L57584 911Q57544 736 57514 641L57307 0L57115 0L56816 1096L56990 1096Q57096 683 57151 467Q57207 251 57215 176L57223 176Q57234 233 57258 323Q57283 414 57301 467L57502 1096L57682 1096L57878 467Q57934 295 57954 178L57962 178Q57966 214 57983 289Q58001 364 58192 1096L58364 1096L58061 0ZM59508 549Q59508 281 59373 130Q59238 -20 59000 -20Q58853 -20 58739 49Q58625 118 58563 247Q58501 376 58501 549Q58501 817 58635 966Q58769 1116 59007 1116Q59237 1116 59372 963Q59508 810 59508 549ZM58673 549Q58673 339 58757 229Q58841 119 59004 119Q59167 119 59251 228Q59336 338 59336 549Q59336 758 59251 866Q59167 975 59002 975Q58839 975 58756 868Q58673 761 58673 549ZM60299 1116Q60372 1116 60430 1104L60407 950Q60339 965 60287 965Q60154 965 60059 857Q59965 749 59965 588L59965 0L59799 0L59799 1096L59936 1096L59955 893L59963 893Q60024 1000 60110 1058Q60196 1116 60299 1116ZM60791 561L60799 561Q60842 622 60930 721L61284 1096L61481 1096L61037 629L61512 0L61311 0L60924 518L60799 410L60799 0L60635 0L60635 1556L60799 1556L60799 731Q60799 676 60791 561Z" fill="#ffffff" style=""></path></g></g></g></svg>